<?xml version="1.0" standalone="no"?>
<!DOCTYPE svg PUBLIC "-//W3C//DTD SVG 20010904//EN"
 "http://www.w3.org/TR/2001/REC-SVG-20010904/DTD/svg10.dtd">
<svg version="1.0" xmlns="http://www.w3.org/2000/svg"
 width="500.000000pt" height="500.000000pt" viewBox="0 0 500.000000 500.000000"
 preserveAspectRatio="xMidYMid meet">
<metadata>
Created by potrace 1.14, written by Peter Selinger 2001-2017
</metadata>
<g transform="translate(0.000000,500.000000) scale(0.100000,-0.100000)"
fill="#000000" stroke="none">
<path d="M2 4868 l3 -133 52 0 c28 0 55 -4 60 -8 4 -5 0 -5 -10 -1 -13 5 -16
2 -11 -9 4 -12 1 -15 -15 -12 -12 2 -19 0 -16 -5 3 -5 -10 -12 -30 -16 -21 -4
-35 -12 -35 -21 0 -16 5 -15 83 15 26 10 44 22 40 27 -5 4 -2 5 5 1 7 -4 51
11 101 33 119 55 151 56 56 1 -76 -43 -219 -132 -252 -157 -24 -18 -33 -32
-33 -53 0 -28 1 -29 27 -19 15 6 48 21 74 34 25 12 61 26 78 30 31 7 177 -12
167 -22 -2 -2 -26 -11 -53 -19 -39 -11 -41 -13 -13 -10 19 2 44 8 55 11 l20 8
-20 -16 c-13 -11 -40 -16 -79 -17 -55 0 -60 -2 -104 -45 -25 -25 -47 -45 -49
-45 -2 0 -14 6 -26 14 -12 7 -34 16 -49 20 l-28 6 0 -120 c0 -78 4 -120 11
-120 5 0 7 -4 4 -10 -4 -6 1 -7 11 -3 11 4 15 2 11 -4 -8 -12 29 -30 75 -36
18 -2 25 -2 16 0 -37 9 -17 23 25 17 60 -9 81 -23 37 -24 -34 -1 -33 -1 19
-19 93 -33 140 -81 148 -152 5 -53 -11 -86 -56 -116 -36 -24 -35 -31 1 -12 12
7 47 15 77 19 31 4 72 13 91 19 l35 10 -23 -18 c-13 -12 -20 -25 -16 -35 4
-11 0 -16 -14 -16 -12 0 -24 -4 -27 -10 -9 -14 -105 -12 -135 3 -17 8 -26 22
-28 42 -4 51 -12 75 -23 75 -6 0 -7 -4 -4 -10 3 -6 -1 -7 -9 -4 -9 3 -16 12
-16 20 0 8 6 11 17 7 11 -4 14 -3 9 5 -4 7 -14 12 -22 12 -8 0 -14 7 -14 15 0
9 -30 30 -74 50 -40 20 -85 46 -99 59 l-26 24 0 -187 -1 -186 29 -51 c44 -76
131 -138 239 -170 48 -14 93 -27 100 -30 7 -2 10 -8 7 -14 -4 -6 6 -10 22 -10
27 0 121 -49 96 -50 -7 0 -10 -7 -7 -15 9 -22 -52 1 -72 29 -10 12 -14 14 -11
5 5 -14 -9 -12 -89 11 -119 35 -239 92 -282 133 l-33 31 1 -709 c1 -453 5
-728 12 -759 14 -64 58 -112 121 -131 26 -8 45 -10 42 -5 -4 6 4 10 16 10 13
0 49 7 81 16 70 20 88 11 88 -46 0 -63 -77 -114 -111 -74 -38 46 -113 54 -107
11 2 -17 9 -22 28 -20 14 1 36 0 49 -3 23 -5 23 -6 5 -18 -10 -8 -43 -17 -72
-21 -61 -8 -102 11 -102 48 0 18 -2 19 -11 7 -8 -12 -10 -12 -7 5 5 30 38 32
38 3 0 -29 17 -48 43 -48 17 0 17 2 -4 19 -22 18 -22 19 -6 45 10 14 14 26 10
26 -5 1 3 7 17 15 20 11 21 14 7 15 -40 0 -94 39 -115 82 l-21 43 -1 -140 c0
-170 4 -177 111 -183 56 -4 76 0 135 26 38 16 76 32 84 36 8 3 4 4 -9 2 -24
-5 -24 -5 -5 14 10 10 32 21 48 24 44 8 45 23 1 17 -5 -1 -2 5 8 13 18 14 102
31 123 25 13 -4 86 21 104 36 8 7 26 16 40 20 14 4 66 27 115 52 57 28 81 36
65 22 -30 -25 -120 -72 -120 -62 0 4 -6 0 -13 -9 -6 -9 -55 -41 -107 -71 -52
-30 -122 -71 -154 -91 -33 -20 -96 -50 -140 -68 -66 -26 -95 -32 -161 -32 -44
-1 -90 3 -102 7 l-23 8 0 -416 c0 -330 3 -415 12 -409 10 6 11 4 1 -7 -10 -10
-13 -86 -13 -308 0 -284 1 -294 18 -278 10 10 23 17 28 17 5 0 4 -4 -1 -8 -6
-4 -18 -19 -28 -35 -15 -23 -17 -50 -16 -182 l1 -155 330 0 c246 0 327 3 322
12 -5 7 -3 8 6 3 7 -4 24 -9 37 -11 l23 -2 -25 30 c-19 23 -25 40 -23 66 4 51
23 50 38 -3 7 -25 22 -57 32 -70 l19 -25 580 0 580 0 62 42 c81 55 98 75 143
164 21 42 55 94 77 117 22 23 32 31 23 17 -26 -40 -55 -108 -68 -159 -22 -90
-33 -105 -80 -118 -24 -7 -58 -23 -77 -37 l-35 -26 75 0 c46 0 80 5 88 12 11
10 13 10 7 1 -6 -10 15 -13 87 -13 l94 0 11 38 c7 20 13 48 15 62 3 14 5 -3 6
-37 1 -62 1 -63 29 -63 22 0 32 7 45 34 28 59 88 56 109 -5 9 -28 13 -29 69
-29 57 0 59 1 60 28 l1 27 7 -25 7 -25 503 -3 503 -2 40 39 c21 22 55 45 75
52 49 16 149 7 171 -15 16 -16 16 -17 -11 -7 -65 25 -202 3 -182 -29 3 -5 0
-12 -6 -16 -8 -5 -9 -3 -4 6 5 9 4 11 -3 6 -7 -4 -12 -14 -12 -22 0 -21 438
-21 479 1 35 18 81 71 81 93 1 18 23 52 34 52 12 0 6 -72 -10 -101 -8 -17 -30
-37 -47 -44 -28 -12 14 -14 341 -15 l372 0 -2 198 -3 197 -28 3 c-16 2 -40 -4
-55 -13 -25 -15 -25 -14 3 9 16 14 42 28 57 32 l28 6 0 759 c0 516 -3 759 -10
759 -6 0 -22 -7 -35 -16 -24 -16 -25 -15 -25 4 0 24 34 46 56 38 12 -5 14 3
13 39 -2 26 -7 41 -13 38 -5 -4 -7 1 -3 11 4 10 10 30 13 44 5 22 4 25 -7 15
-22 -22 -47 -14 -75 23 -21 27 -33 34 -53 32 -22 -3 -27 -9 -31 -42 -4 -29
-10 -40 -24 -42 -14 -2 -16 0 -7 9 32 32 -23 77 -97 77 -20 0 -44 5 -52 10
-12 7 -8 11 18 16 18 4 35 10 38 15 3 5 -2 6 -10 3 -9 -3 -23 -3 -33 0 -14 6
-14 8 3 21 28 21 87 18 117 -5 27 -22 73 -28 61 -8 -4 7 -3 8 5 4 6 -4 17 -3
24 2 7 5 24 12 39 14 25 5 28 2 28 -22 0 -27 26 -60 48 -60 9 0 12 188 12 768
l0 767 -21 -45 c-11 -25 -32 -58 -47 -73 -38 -40 -163 -96 -212 -95 -22 0 -57
-8 -78 -19 l-39 -19 20 33 c20 35 18 39 -14 22 -20 -10 -20 -10 -3 16 20 30
44 45 73 45 12 0 29 7 39 16 29 25 113 81 182 120 108 60 100 40 100 261 l0
195 -26 -31 c-14 -17 -66 -51 -119 -76 -94 -46 -139 -81 -151 -117 -3 -11 -12
-17 -19 -14 -10 3 -9 -3 3 -26 9 -20 29 -36 54 -46 l40 -16 -79 -40 c-67 -34
-89 -40 -158 -43 -63 -3 -87 0 -115 14 -43 22 -51 54 -18 72 16 8 17 10 3 5
-11 -3 -40 -6 -65 -5 -25 0 -56 -6 -70 -15 -19 -11 -20 -14 -5 -10 l20 6 -20
-15 c-11 -9 -20 -21 -20 -28 0 -21 -44 -19 -85 4 -33 19 -44 21 -65 11 -36
-16 -47 -15 -43 5 2 9 14 20 28 24 23 7 23 7 -6 8 -30 1 -51 22 -39 40 2 5 35
11 72 14 37 4 88 9 113 11 50 5 60 9 -110 -43 -34 -10 -34 -10 10 -5 25 4 86
19 137 35 104 33 146 62 279 188 60 57 109 94 152 114 59 28 70 29 145 25 45
-3 74 -3 64 -1 -15 4 -12 8 15 21 18 10 38 27 44 39 6 13 14 21 17 18 4 -3 4
-2 1 2 -3 5 -9 8 -12 9 -4 0 -18 6 -32 12 l-25 12 30 -2 c54 -4 55 0 55 175
l0 161 -27 23 -28 22 28 1 27 0 0 150 0 150 -73 0 c-45 0 -78 -5 -86 -12 -11
-11 -13 -10 -7 0 6 10 -118 12 -628 12 l-636 -1 -15 -29 c-8 -16 -15 -36 -15
-44 0 -8 -5 -18 -10 -21 -20 -12 -40 17 -40 56 l0 39 -95 0 -95 0 0 -36 c0
-36 14 -54 83 -111 26 -22 33 -51 30 -130 -1 -7 3 -11 7 -8 4 3 10 -2 14 -10
3 -8 13 -15 22 -15 13 0 11 5 -10 25 -21 19 -26 33 -26 69 0 25 4 47 9 51 6 3
8 -11 6 -34 -3 -29 2 -48 18 -73 15 -22 21 -41 17 -57 -9 -39 -30 -45 -81 -22
-40 18 -46 24 -42 45 3 14 -4 45 -17 71 -20 42 -40 59 -40 34 0 -8 -5 -8 -15
1 -8 7 -15 9 -15 5 0 -12 -32 18 -53 50 -10 17 -16 22 -13 12 3 -10 2 -16 -3
-13 -11 7 -31 86 -31 120 0 30 -17 34 -35 9 -8 -11 -18 -14 -31 -8 -10 5 -26
9 -36 9 -9 1 -20 4 -24 9 -4 4 -142 7 -306 7 -332 0 -310 5 -288 -69 18 -64
51 -100 128 -138 40 -20 75 -40 78 -44 2 -4 -22 -11 -53 -15 -32 -4 -77 -12
-100 -19 -47 -14 -45 -17 -58 78 -9 60 -19 67 -22 15 -2 -23 -14 -61 -28 -85
-26 -43 -45 -58 -159 -124 -32 -19 -93 -65 -134 -104 -42 -38 -73 -62 -69 -52
4 11 3 16 -3 12 -6 -3 -10 -12 -10 -19 0 -7 -25 -51 -56 -97 l-56 -84 7 68 c3
38 14 91 24 117 10 27 16 51 13 54 -3 4 -1 6 5 6 5 0 10 6 10 13 0 22 34 85
49 91 9 3 13 9 11 13 -9 14 117 105 213 154 50 26 103 57 116 70 25 24 58 86
68 132 l6 27 -290 0 c-197 0 -290 -3 -290 -11 0 -5 -4 -8 -9 -5 -5 3 -12 -1
-15 -10 -9 -23 -7 -31 4 -14 16 26 18 6 5 -55 -13 -65 -40 -125 -55 -125 -5 0
-22 -18 -36 -40 -21 -32 -33 -40 -56 -40 -23 0 -29 4 -24 15 3 8 1 15 -4 15
-6 0 -10 -7 -10 -15 0 -10 -10 -15 -30 -15 -59 0 -20 65 63 106 49 24 137 106
137 126 0 6 -8 23 -17 39 -14 24 -24 29 -55 29 -38 0 -38 0 -38 -40 0 -63 -23
-106 -67 -128 -21 -10 -37 -23 -36 -30 2 -7 -4 -9 -14 -5 -13 5 -15 2 -10 -11
4 -10 3 -15 -3 -11 -5 3 -21 -12 -36 -35 -15 -23 -35 -40 -45 -40 -24 0 -24 4
1 55 11 22 40 57 65 78 50 42 69 74 78 130 4 27 2 37 -8 37 -8 0 -16 -16 -20
-39 -4 -22 -14 -46 -23 -52 -14 -11 -15 -11 -4 1 6 8 12 31 12 52 0 31 -4 38
-19 38 -11 0 -23 -12 -31 -30 -17 -41 -38 -39 -32 3 5 38 -5 34 -12 -6 -3 -18
1 -30 11 -35 13 -8 12 -12 -8 -26 -13 -9 -37 -16 -54 -16 l-30 1 26 14 c23 12
49 58 49 86 0 17 -75 6 -88 -13 -7 -10 -19 -18 -27 -18 -8 0 -17 -4 -20 -10
-11 -17 11 -11 49 15 20 13 36 20 36 15 0 -14 -57 -48 -93 -56 -16 -3 -34 -1
-43 7 -8 6 -18 9 -22 5 -15 -15 29 -35 55 -25 35 13 42 10 13 -6 -14 -8 -46
-14 -71 -13 -25 0 -55 -5 -67 -11 -29 -16 -41 -13 -18 4 11 8 28 15 38 15 10
0 22 8 25 18 8 21 35 42 45 36 4 -3 5 2 2 10 -8 20 -44 2 -51 -25 -6 -20 -53
-28 -53 -8 0 5 6 7 13 3 8 -5 7 -2 -2 9 -8 10 -21 17 -30 15 -19 -3 -41 9 -41
23 0 6 5 7 10 4 5 -3 10 -1 10 4 0 16 -222 15 -239 -1 -8 -7 -11 -8 -8 -2 4 7
-130 11 -454 13 l-460 3 3 -134z m1126 95 c55 -41 54 -80 -3 -137 -38 -39 -93
-55 -128 -38 -21 10 -21 11 5 11 58 2 121 42 139 90 13 32 4 56 -27 69 -42 20
-75 15 -169 -24 -18 -7 -19 -6 -5 11 38 47 137 56 188 18z m2505 -4 l-6 -30
38 25 c22 15 51 26 69 25 29 -1 29 -2 -13 -15 -24 -7 -49 -19 -57 -25 -21 -17
-17 -63 7 -85 l22 -19 -18 34 c-16 32 -16 34 1 50 14 13 16 13 12 1 -7 -22 7
-55 23 -55 8 -1 13 -7 11 -15 -2 -8 -1 -12 3 -8 4 4 14 1 22 -7 8 -8 18 -15
23 -15 5 0 -2 11 -16 25 -32 32 -29 71 7 97 19 14 47 20 105 23 l79 4 -60 -9
c-81 -13 -114 -28 -121 -55 -8 -34 12 -64 59 -86 36 -16 38 -18 12 -14 -16 3
-56 7 -88 9 -110 6 -177 83 -132 152 21 32 26 30 18 -7z m-476 -50 c13 -52 26
-74 42 -74 13 0 65 -48 90 -83 39 -56 18 -44 -34 18 -27 33 -51 58 -53 55 -3
-3 16 -27 41 -54 75 -80 62 -97 -38 -50 -35 16 -36 17 -10 13 l30 -6 -30 25
c-16 14 -39 34 -50 44 -11 10 -38 30 -61 45 -45 28 -64 71 -46 105 8 14 21 18
58 18 l47 -1 14 -55z m894 35 c51 -15 84 -33 76 -40 -2 -2 -19 4 -38 13 -19 9
-56 22 -84 29 -27 7 -41 13 -29 13 11 1 45 -6 75 -15z m85 0 c18 -14 18 -14
-6 -3 -31 14 -36 19 -24 19 6 0 19 -7 30 -16z m-414 -6 c-6 -7 -12 -26 -15
-43 l-4 -30 -2 31 c0 16 4 35 11 42 16 16 23 15 10 0z m-2674 -51 c3 -26 -27
-67 -49 -67 -7 0 0 9 15 21 32 25 34 61 4 84 l-23 18 25 -15 c14 -9 26 -26 28
-41z m2528 26 c-10 -10 -19 5 -10 18 6 11 8 11 12 0 2 -7 1 -15 -2 -18z
m-2606 7 c-13 -9 -13 -10 0 -10 13 0 13 -1 0 -10 -13 -9 -13 -10 0 -10 11 -1
9 -6 -7 -19 -17 -14 -19 -21 -10 -32 10 -10 8 -10 -6 1 -16 12 -16 15 -3 28
13 14 13 17 -2 29 -16 12 -16 13 1 7 10 -4 17 -3 16 2 -3 17 1 24 14 24 8 0 7
-4 -3 -10z m2975 0 c-3 -5 -13 -10 -22 -10 -19 0 -53 -28 -53 -43 0 -6 9 -2
19 7 19 17 19 17 14 -5 -5 -19 -3 -21 20 -17 34 7 36 -9 2 -18 -40 -10 -80 9
-83 39 -3 23 2 30 30 42 38 17 82 20 73 5z m-3501 -19 c3 -5 -11 -8 -32 -6
-34 2 -42 -4 -104 -68 -43 -45 -71 -66 -79 -62 -7 5 -10 4 -5 -3 3 -6 2 -13
-2 -16 -5 -3 -9 5 -8 17 1 24 81 104 131 130 33 18 91 22 99 8z m340 -33 c7
-5 8 -8 1 -8 -16 0 -35 22 -35 40 1 11 4 10 12 -5 6 -11 16 -23 22 -27z m3528
12 c-3 -20 2 -37 13 -50 18 -19 17 -20 -6 -20 -31 0 -49 17 -49 46 0 18 9 29
46 53 0 1 -1 -13 -4 -29z m-3412 5 c-7 -8 -17 -15 -23 -15 -6 0 -2 7 9 15 25
19 30 19 14 0z m1240 0 c0 -8 -4 -15 -8 -15 -5 0 -9 7 -9 15 0 8 4 15 9 15 4
0 8 -7 8 -15z m1856 -9 c22 -17 14 -38 -27 -68 -35 -26 -143 -43 -199 -30 -44
10 -43 10 35 11 124 2 197 45 153 89 -18 18 13 16 38 -2z m-2581 -22 c54 -58
17 -154 -57 -154 l-33 1 32 14 c46 19 60 54 40 94 -9 17 -11 29 -6 25 6 -3 14
-16 19 -28 8 -20 9 -20 9 5 1 37 -24 54 -75 52 -24 -1 -44 3 -44 8 0 5 20 9
45 9 37 0 51 -5 70 -26z m-958 -6 c-3 -8 -6 -5 -6 6 -1 11 2 17 5 13 3 -3 4
-12 1 -19z m901 -5 c-10 -2 -26 -2 -35 0 -10 3 -2 5 17 5 19 0 27 -2 18 -5z
m2257 -27 c48 -20 44 -28 -5 -11 -34 12 -43 12 -69 -1 -34 -17 -46 -41 -30
-60 10 -12 14 -11 26 6 8 12 25 20 41 20 l27 0 -32 -20 c-35 -21 -49 -55 -39
-95 5 -19 3 -23 -9 -18 -12 4 -15 16 -13 44 2 21 -1 39 -7 40 -28 3 -45 22
-45 48 0 37 22 55 56 47 17 -5 23 -3 19 4 -9 15 40 12 80 -4z m-2277 -12 c12
-8 22 -25 21 -37 l0 -22 -11 23 c-22 45 -88 41 -150 -9 -48 -38 -59 -37 -22 2
52 56 119 73 162 43z m-560 -21 c-10 -2 -28 -2 -40 0 -13 2 -5 4 17 4 22 1 32
-1 23 -4z m357 -2 c-6 -5 -23 -12 -40 -16 l-30 -6 30 15 c35 17 53 20 40 7z
m184 -21 c12 -35 5 -41 -9 -7 -8 21 -9 21 -9 2 -1 -12 5 -27 12 -35 10 -12 9
-12 -5 -1 -18 13 -24 51 -11 64 10 10 10 10 22 -23z m2389 10 c22 -7 23 -8 6
-9 -11 -1 -29 6 -40 15 -10 8 -13 12 -6 9 8 -4 26 -11 40 -15z m-2805 -11 c34
-11 77 -30 94 -42 29 -20 33 -27 33 -70 l0 -48 -32 24 c-79 59 -117 72 -218
72 -82 0 -103 -4 -152 -27 -31 -14 -76 -45 -101 -67 -24 -23 -47 -41 -51 -41
-36 0 63 117 133 157 25 15 49 31 52 36 3 4 10 7 15 6 5 -1 41 -1 79 0 49 1
66 4 55 11 -27 18 26 11 93 -11z m3412 -24 c28 -10 65 -31 84 -48 19 -16 59
-45 88 -64 29 -18 53 -38 53 -43 0 -21 -40 -9 -91 27 -149 103 -274 125 -423
73 -106 -36 -242 -149 -283 -234 -16 -34 -18 -35 -35 -19 -10 9 -18 22 -18 29
0 19 113 158 155 191 20 15 46 36 58 46 83 70 277 90 412 42z m-469 18 c-3 -4
-35 -8 -70 -9 -76 -2 -132 -19 -140 -41 -10 -25 2 -49 30 -62 15 -6 24 -15 20
-18 -3 -3 0 -13 6 -22 10 -13 10 -14 -1 -5 -17 15 -55 6 -42 -10 7 -8 3 -21
-13 -41 -27 -34 -44 -27 -38 14 2 18 9 28 15 24 6 -3 7 -1 3 6 -4 6 -12 9 -17
6 -5 -4 -9 -1 -9 4 0 20 5 26 20 23 13 -3 13 -2 -1 10 -8 7 -23 25 -32 39 -15
25 -15 27 1 25 9 0 16 5 14 12 -1 8 2 11 7 7 6 -3 22 2 36 11 13 9 42 18 62
21 21 3 40 7 42 9 8 7 115 4 107 -3z m994 -38 c25 -26 21 -32 -9 -15 -20 10
-36 40 -22 40 4 0 18 -11 31 -25z m-964 0 c-22 -17 -146 -21 -146 -5 0 5 30
11 68 13 37 2 74 4 82 5 11 1 9 -3 -4 -13z m-2661 -8 c16 -12 10 -14 -44 -13
-33 0 -61 2 -61 4 0 6 46 21 66 21 11 1 28 -5 39 -12z m1218 -2 c0 -6 -7 -11
-16 -13 -12 -3 -15 1 -11 13 7 17 25 17 27 0z m-459 -44 c16 -18 16 -18 -9
-14 -18 4 -25 1 -25 -11 0 -12 -9 -16 -37 -15 -37 1 -37 1 -9 9 15 5 35 18 43
29 17 25 16 25 37 2z m1760 10 c3 -5 -3 -11 -15 -14 -16 -4 -18 -3 -8 9 13 16
16 17 23 5z m-150 -27 c3 -8 2 -12 -4 -9 -6 3 -10 10 -10 16 0 14 7 11 14 -7z
m-5 -74 c-1 -23 -2 -23 -9 5 -20 73 -21 82 -6 50 9 -16 15 -41 15 -55z m451
70 c-8 -5 -19 -10 -25 -10 -5 0 -3 5 5 10 8 5 20 10 25 10 6 0 3 -5 -5 -10z
m-522 -32 c22 -22 12 -29 -18 -13 -16 9 -30 18 -30 20 0 10 36 5 48 -7z
m-1645 -18 c-3 -12 -8 -19 -11 -16 -5 6 5 36 12 36 2 0 2 -9 -1 -20z m1674
-12 c-3 -7 -5 -2 -5 12 0 14 2 19 5 13 2 -7 2 -19 0 -25z m433 20 c0 -6 -3 -9
-6 -6 -3 3 -26 -16 -51 -43 -26 -28 -52 -48 -60 -45 -7 3 -13 -1 -13 -10 0 -8
-6 -17 -14 -20 -8 -3 -14 -11 -12 -17 1 -7 1 -8 -2 -3 -3 5 -13 -2 -24 -15
l-19 -24 15 30 c18 36 106 138 114 131 2 -3 16 4 30 14 28 23 42 25 42 8z
m648 -30 c-6 -16 -48 -23 -48 -9 0 6 7 8 15 5 8 -4 15 -1 15 5 0 6 5 11 11 11
6 0 9 -6 7 -12z m60 -8 c-15 -23 -28 -26 -28 -6 0 8 8 17 18 19 9 3 18 5 20 6
1 0 -3 -8 -10 -19z m160 -21 c-2 -6 -7 -10 -11 -10 -4 1 -14 1 -22 1 -8 0 -15
5 -15 10 0 6 12 10 26 10 14 0 24 -5 22 -11z m-1163 -39 c-3 -5 -14 -10 -23
-10 -15 0 -15 2 -2 10 20 13 33 13 25 0z m1162 -186 c-3 -3 -12 -4 -19 -1 -8
3 -5 6 6 6 11 1 17 -2 13 -5z m-72 -24 c-9 -15 -126 -92 -131 -87 -6 6 61 59
101 80 36 19 38 20 30 7z m-2255 -252 c-1 -13 -7 -41 -15 -63 -8 -21 -12 -41
-10 -44 3 -2 -3 -10 -13 -17 -27 -20 -11 -23 38 -7 57 19 81 41 110 103 25 52
39 58 97 42 21 -6 16 -14 -58 -90 -44 -45 -105 -96 -135 -113 -63 -36 -94 -71
-94 -108 l1 -26 14 30 c16 36 18 32 6 -11 -8 -27 -2 -23 55 35 35 36 71 73 80
81 10 8 37 32 61 54 39 35 60 39 31 6 -11 -12 -10 -12 5 -1 9 7 17 20 17 28 0
8 4 12 8 9 9 -5 65 47 63 58 -5 28 1 36 22 32 55 -10 77 -19 77 -31 0 -14 -88
-138 -102 -143 -4 -2 -6 -7 -3 -11 2 -5 -8 -14 -23 -22 -42 -21 -82 -56 -74
-64 4 -5 2 -5 -5 -1 -29 16 -188 -118 -218 -183 l-18 -41 -17 27 c-9 16 -28
34 -41 41 -14 7 -29 22 -34 34 -6 11 -50 45 -100 75 -49 30 -110 71 -134 91
l-44 37 24 28 c21 24 77 48 64 28 -2 -5 2 -14 10 -21 8 -7 15 -10 15 -7 0 3
13 -7 29 -21 46 -44 164 -135 155 -121 -4 8 -9 22 -9 33 -1 11 -17 32 -36 48
-77 66 -141 132 -130 136 6 2 28 -10 49 -26 20 -16 54 -35 74 -42 20 -8 35
-17 32 -22 -3 -4 0 -8 5 -8 16 0 14 11 -8 45 -30 46 -64 83 -57 63 7 -24 -16
-23 -38 1 -16 17 -14 19 44 45 58 26 161 54 208 55 17 1 22 -4 22 -21z m-1480
-72 c0 -36 -5 -58 -15 -66 -13 -11 -14 -10 -8 6 6 16 3 16 -24 -4 -17 -12 -38
-22 -46 -22 -9 0 -17 -5 -19 -11 -2 -5 -39 -13 -83 -16 -88 -6 -93 5 -12 27
66 18 59 28 -11 16 -64 -10 -92 -5 -92 17 0 10 15 16 45 19 24 3 79 22 121 42
42 20 79 34 84 31 4 -2 16 2 26 9 27 21 34 11 34 -48z m3355 54 c-3 -6 -21
-17 -38 -26 l-32 -15 30 25 c30 26 51 34 40 16z m-1625 -23 c0 -2 -10 -12 -22
-23 l-23 -19 19 23 c18 21 26 27 26 19z m183 -61 c3 -7 0 -19 -6 -25 -18 -18
-43 -13 -44 10 -2 20 -1 20 11 4 10 -14 15 -15 21 -5 4 7 2 16 -6 21 -11 7
-11 9 2 9 9 0 19 -6 22 -14z m1120 -33 c-7 -2 -19 -2 -25 0 -7 3 -2 5 12 5 14
0 19 -2 13 -5z m-3038 -53 c-4 -12 -9 -19 -12 -17 -3 3 -2 15 2 27 4 12 9 19
12 17 3 -3 2 -15 -2 -27z m-327 4 c20 -6 19 -8 -19 -27 -33 -16 -46 -31 -64
-71 -34 -75 -85 -116 -145 -116 -30 0 -32 -2 -28 -33 4 -37 -12 -60 -56 -76
-41 -16 -50 -4 -18 25 15 14 21 23 15 19 -10 -4 -13 5 -13 35 0 36 -7 48 -52
96 -28 30 -43 52 -33 48 12 -5 16 -4 11 4 -3 6 -2 13 3 17 6 3 15 -4 21 -16 7
-13 8 -19 2 -15 -6 3 -13 2 -16 -2 -3 -5 5 -9 17 -8 18 1 21 6 19 26 -2 14 -1
22 2 19 3 -3 8 -19 10 -35 2 -16 9 -42 16 -59 7 -16 16 -46 20 -65 l8 -35 1
33 c0 18 -4 42 -9 53 -18 33 0 44 24 14 27 -33 57 -28 84 13 9 15 21 31 27 35
5 4 -8 5 -30 2 -30 -5 -36 -4 -25 4 13 10 13 12 1 20 -11 7 -5 11 23 16 20 4
58 22 84 40 67 45 80 49 120 39z m-640 -27 c20 -13 55 -30 77 -39 22 -9 51
-21 65 -27 l25 -10 -27 4 c-16 2 -29 -2 -32 -11 -7 -17 -33 -18 -39 -1 -3 9
-8 9 -17 1 -6 -7 -20 -9 -31 -7 -26 7 -86 113 -64 113 3 0 22 -10 43 -23z
m2926 -25 c3 -5 -1 -9 -9 -9 -8 0 -12 4 -9 9 3 4 7 8 9 8 2 0 6 -4 9 -8z
m-2052 -44 c-7 -7 -12 -24 -12 -38 0 -47 -115 -140 -173 -140 -14 0 -49 -16
-78 -35 l-54 -35 40 35 c22 20 60 47 85 60 25 13 79 57 119 99 41 41 77 73 80
71 2 -3 -1 -11 -7 -17z m98 -20 c0 -23 -3 -29 -9 -19 -8 12 -4 51 5 51 2 0 4
-15 4 -32z m1102 -2 c15 -21 15 -26 3 -36 -31 -26 -66 6 -51 46 8 21 29 17 48
-10z m606 5 c3 -8 -1 -12 -9 -9 -7 2 -15 10 -17 17 -3 8 1 12 9 9 7 -2 15 -10
17 -17z m326 -6 c-4 -8 -1 -22 6 -30 10 -12 9 -15 -4 -15 -16 0 -23 40 -9 53
10 11 13 8 7 -8z m-1004 -37 c0 -5 -6 -8 -14 -8 -9 0 -12 7 -9 21 4 16 8 17
14 7 5 -7 9 -16 9 -20z m-1310 2 c0 -11 -2 -20 -4 -20 -2 0 -6 9 -9 20 -3 11
-1 20 4 20 5 0 9 -9 9 -20z m1975 -2 l37 -21 -23 -13 c-13 -7 -32 -13 -41 -14
-20 0 -58 -46 -58 -69 0 -14 2 -14 10 -1 5 8 12 11 17 7 8 -9 -15 -27 -34 -27
-21 0 -15 47 10 76 14 16 39 30 63 34 39 8 39 8 6 9 -72 2 -120 -50 -124 -136
l-1 -38 -4 34 c-3 19 -12 40 -21 47 -33 24 59 133 115 134 6 0 28 -10 48 -22z
m152 -10 c-3 -7 -5 -2 -5 12 0 14 2 19 5 13 2 -7 2 -19 0 -25z m-664 -61 c-8
-13 -43 24 -43 45 0 16 4 15 24 -9 13 -15 22 -32 19 -36z m2082 23 c1 -30 -3
-41 -18 -46 -20 -6 -67 20 -67 37 0 17 43 48 65 49 17 0 20 -7 20 -40z m-1983
-27 c17 -21 22 -91 8 -113 -8 -12 -10 -10 -10 11 0 16 -15 42 -38 67 -22 23
-37 44 -34 47 12 12 60 4 74 -12z m238 -3 c0 -5 -5 -10 -11 -10 -5 0 -7 5 -4
10 3 6 8 10 11 10 2 0 4 -4 4 -10z m198 -22 c-6 -18 -28 -21 -28 -4 0 9 7 16
16 16 9 0 14 -5 12 -12z m-765 -45 c21 6 21 5 4 -8 -29 -21 -77 2 -77 36 0 16
3 15 26 -7 17 -18 32 -24 47 -21z m855 15 c9 -9 5 -16 -18 -30 -38 -23 -51
-23 -47 0 6 40 39 56 65 30z m-554 -14 c17 -17 22 -44 7 -44 -5 0 -14 7 -21
15 -7 8 -19 15 -26 15 -8 0 -11 6 -8 15 8 19 28 19 48 -1z m-343 -32 c-7 -2
-18 1 -23 6 -8 8 -4 9 13 5 13 -4 18 -8 10 -11z m554 -2 c-3 -5 -14 -10 -23
-10 -10 0 22 -36 77 -87 52 -48 100 -102 108 -120 28 -68 13 -152 -35 -190
-26 -21 -34 -15 -32 25 4 75 1 88 -25 102 -13 7 -22 18 -18 23 3 6 1 7 -6 3
-6 -4 -22 -1 -34 7 -32 20 -98 12 -119 -16 -23 -29 -33 -99 -19 -126 15 -28
-9 -30 -26 -2 -36 58 -19 145 42 212 19 22 35 36 35 33 0 -3 12 4 26 15 33 26
48 19 103 -52 50 -66 75 -135 68 -185 l-6 -37 19 35 c11 19 19 44 20 56 0 37
-31 113 -57 136 -14 13 -49 46 -77 75 l-51 52 -25 -32 c-14 -17 -19 -28 -12
-24 7 5 12 3 12 -3 0 -7 -8 -9 -19 -5 -15 4 -30 -7 -63 -48 -59 -72 -76 -124
-55 -166 8 -17 11 -31 6 -31 -6 0 -7 -6 -3 -12 4 -7 -5 -2 -20 12 -16 15 -25
32 -23 42 3 10 1 18 -4 18 -5 0 -9 17 -8 38 0 30 2 33 9 17 9 -20 9 -20 9 0 1
11 8 31 17 43 9 13 14 26 11 29 -3 2 -12 -8 -21 -24 -8 -15 -15 -23 -16 -17 0
16 40 65 49 59 15 -9 140 107 141 131 0 5 5 15 12 22 14 14 42 16 33 2z m197
1 c8 12 9 12 6 0 -6 -22 -28 -25 -27 -4 0 12 2 14 6 4 5 -11 7 -11 15 0z m158
-6 c-7 -9 -15 -13 -17 -11 -7 7 7 26 19 26 6 0 6 -6 -2 -15z m-2270 -4 c0 -14
-94 -43 -113 -35 -29 11 -19 20 36 31 73 14 77 14 77 4z m4360 -2 c0 -26 -42
-76 -81 -98 -31 -18 -64 -25 -129 -30 -92 -6 -130 -24 -130 -61 0 -13 -12 -19
-47 -23 -27 -3 -57 -9 -68 -12 -15 -5 -16 -4 -6 3 7 5 11 14 8 19 -20 31 126
115 228 132 72 11 168 46 185 66 15 18 40 20 40 4z m-438 -29 c-18 -11 -35
-20 -39 -20 -3 0 -29 -17 -57 -37 -28 -20 -44 -28 -36 -18 20 25 131 95 150
95 8 0 0 -9 -18 -20z m-1601 -37 l34 -36 -40 31 c-22 17 -51 32 -65 35 -22 4
-22 4 6 6 23 1 38 -8 65 -36z m-681 17 c0 -5 -4 -10 -9 -10 -6 0 -13 5 -16 10
-3 6 1 10 9 10 9 0 16 -4 16 -10z m-2044 -22 c20 -12 53 -24 72 -27 27 -5 36
-11 39 -29 3 -23 2 -24 -49 -17 -60 7 -148 33 -163 47 -7 6 -7 9 0 8 22 -5 35
1 35 14 0 8 6 17 13 19 6 3 13 6 14 6 1 1 18 -9 39 -21z m3973 8 c9 -10 8 -16
-4 -26 -13 -11 -15 -8 -15 14 0 30 3 32 19 12z m441 0 c0 -2 -7 -7 -16 -10 -8
-3 -12 -2 -9 4 6 10 25 14 25 6z m-80 -9 c0 -2 -10 -12 -22 -23 l-23 -19 19
23 c18 21 26 27 26 19z m-3581 -18 c17 -6 31 -15 31 -19 0 -10 -174 -11 -245
-3 l-50 7 75 11 c101 16 151 17 189 4z m1929 -13 c2 -9 0 -25 -4 -34 -4 -9 -6
-21 -5 -25 2 -10 -39 1 -56 15 -21 17 -15 36 15 52 32 18 46 16 50 -8z m1296
-12 c20 -8 21 -40 2 -47 -14 -6 -26 12 -26 39 0 16 2 16 24 8z m-3517 -106
c18 -21 18 -21 -7 -8 -40 21 -130 92 -130 102 0 11 111 -65 137 -94z m-522 56
c27 -8 95 -14 150 -15 83 -1 185 -13 150 -18 -5 -1 -3 -6 5 -12 12 -9 11 -10
-7 -6 -13 3 -23 1 -23 -4 0 -5 -49 -6 -118 -3 -123 7 -174 23 -232 74 l-25 21
25 -12 c13 -6 47 -18 75 -25z m856 16 c24 -11 39 -20 32 -20 -33 0 -39 -124
-6 -137 25 -10 -3 -18 -50 -15 -24 2 -44 9 -44 15 0 7 -4 20 -8 30 -4 10 -3
17 4 17 41 0 67 83 35 114 -20 21 -15 20 37 -4z m1085 -8 c-18 -16 -18 -16 -6
6 6 13 14 21 18 18 3 -4 -2 -14 -12 -24z m-177 -42 c1 -20 -1 -22 -9 -10 -5 8
-9 29 -9 45 0 26 2 27 9 10 5 -11 9 -31 9 -45z m1147 33 c-4 -9 -2 -21 4 -28
9 -10 7 -13 -6 -11 -27 4 -40 31 -25 50 16 19 35 11 27 -11z m1924 -20 c0 -31
-56 -91 -123 -131 -54 -33 -54 -33 -98 -17 -102 37 -157 52 -202 57 -43 5 -49
3 -70 -23 -77 -101 -70 -96 -187 -130 -46 -14 -60 -15 -50 -5 154 144 232 186
352 189 57 2 63 0 62 -18 0 -18 7 -20 79 -22 77 -2 137 14 137 36 0 5 19 33
41 61 43 54 58 55 59 3z m-4295 -3 c21 -16 34 -30 29 -30 -10 1 -82 59 -73 60
3 0 23 -13 44 -30z m3803 14 c-9 -9 -21 -13 -28 -9 -14 9 5 25 30 25 12 0 12
-3 -2 -16z m281 -1 c-33 -42 -67 -52 -113 -34 -17 6 -15 10 15 29 20 13 50 22
73 22 35 0 37 -1 25 -17z m-4088 -97 c35 -33 56 -53 47 -46 -21 14 -22 11 -8
-25 8 -21 7 -26 -2 -22 -7 2 -12 10 -11 16 2 6 0 10 -5 9 -16 -5 -93 55 -104
80 -5 15 -17 40 -26 57 l-16 29 31 -19 c16 -11 59 -47 94 -79z m2119 84 c0 -5
-5 -10 -11 -10 -5 0 -7 5 -4 10 3 6 8 10 11 10 2 0 4 -4 4 -10z m1390 -4 c0
-8 -4 -18 -10 -21 -5 -3 -10 3 -10 14 0 12 5 21 10 21 6 0 10 -6 10 -14z m180
-16 c-12 -17 -29 -34 -39 -39 -9 -5 -39 -28 -66 -50 -27 -22 -51 -39 -52 -37
-8 8 158 156 175 156 2 0 -6 -14 -18 -30z m-4115 -61 c33 -7 69 -20 80 -29 11
-10 27 -20 35 -22 27 -9 -144 4 -181 13 -64 16 -138 79 -94 79 11 0 15 5 12
14 -4 9 13 3 41 -15 26 -16 74 -34 107 -40z m2950 51 c3 -5 1 -10 -4 -10 -6 0
-11 5 -11 10 0 6 2 10 4 10 3 0 8 -4 11 -10z m-2148 -37 c-3 -10 -5 -4 -5 12
0 17 2 24 5 18 2 -7 2 -21 0 -30z m1083 -8 c0 -8 10 -21 22 -29 12 -9 17 -16
10 -16 -17 0 -52 37 -52 56 0 8 5 12 10 9 6 -3 10 -12 10 -20z m-1681 2 c17
-7 28 -17 24 -22 -5 -5 2 -1 15 7 14 10 32 13 46 9 26 -7 115 -72 116 -83 0
-19 -73 -7 -104 17 -25 19 -45 25 -82 25 -53 0 -74 12 -74 42 0 21 16 23 59 5z
m1781 -6 c0 -12 -20 -25 -27 -18 -7 7 6 27 18 27 5 0 9 -4 9 -9z m-330 -11 c0
-5 -2 -10 -4 -10 -3 0 -8 5 -11 10 -3 6 -1 10 4 10 6 0 11 -4 11 -10z m1370 1
c0 -5 -7 -12 -16 -15 -14 -5 -15 -4 -4 9 14 17 20 19 20 6z m-1395 -11 c3 -5
1 -10 -4 -10 -6 0 -11 5 -11 10 0 6 2 10 4 10 3 0 8 -4 11 -10z m682 -32 c13
-12 23 -29 23 -38 0 -26 -30 -60 -52 -60 -18 0 -19 2 -7 18 13 16 12 16 -6 1
-50 -40 -85 -29 -85 26 0 64 80 97 127 53z m-350 6 c-3 -3 -12 -4 -19 -1 -8 3
-5 6 6 6 11 1 17 -2 13 -5z m38 -14 c3 -6 -1 -7 -9 -4 -18 7 -21 14 -7 14 6 0
13 -4 16 -10z m-1832 -7 c-7 -2 -19 -2 -25 0 -7 3 -2 5 12 5 14 0 19 -2 13 -5z
m633 -120 c-8 -9 -45 17 -51 37 -7 21 10 59 34 77 14 10 16 4 19 -49 2 -33 1
-62 -2 -65z m1225 87 c60 -22 99 -55 99 -83 0 -20 0 -20 -22 0 -29 27 -87 42
-185 49 -69 4 -83 2 -123 -19 -69 -36 -104 -93 -108 -176 -3 -53 0 -79 16
-115 12 -25 28 -49 36 -52 16 -6 12 -24 -4 -24 -13 0 -70 100 -70 123 0 9 -7
17 -15 17 -8 0 -15 9 -15 21 0 11 -5 30 -11 41 -17 32 13 99 64 139 116 93
231 120 338 79z m573 11 c4 -5 -3 -7 -14 -4 -23 6 -26 13 -6 13 8 0 17 -4 20
-9z m149 -39 c74 -34 138 -101 161 -169 20 -59 20 -87 1 -103 -9 -7 -14 -19
-11 -27 3 -7 1 -13 -4 -13 -6 0 -9 -3 -8 -7 1 -5 -4 -19 -11 -32 -8 -14 -9
-21 -2 -17 6 4 11 3 11 -2 0 -13 -26 -33 -33 -26 -3 4 -18 -3 -33 -15 -43 -34
-58 -24 -18 11 44 39 64 83 63 135 l-1 38 -8 -38 c-7 -37 -43 -87 -55 -75 -3
3 2 18 10 34 31 58 -6 176 -63 200 -19 8 -32 17 -28 21 3 4 12 1 18 -5 7 -7
17 -12 22 -12 19 0 -30 29 -75 44 -24 9 -55 16 -69 17 l-25 1 25 8 25 8 -27 1
c-44 2 -126 -19 -148 -37 -14 -12 -18 -24 -14 -40 l7 -23 16 27 c13 21 25 27
64 31 32 2 46 0 42 -7 -3 -5 -12 -10 -18 -10 -7 0 -32 -16 -56 -35 -30 -24
-47 -32 -52 -24 -4 8 -10 5 -18 -7 -14 -25 -14 1 0 28 10 18 8 19 -13 13 -18
-5 -20 -4 -8 4 12 9 12 13 2 19 -9 6 -7 14 10 29 39 36 101 62 163 69 33 3 62
8 64 10 10 9 35 3 94 -24z m-1079 -7 c-7 -16 -54 -21 -54 -6 0 5 10 12 23 14
12 2 25 5 29 6 4 0 5 -6 2 -14z m2276 -6 c-7 -11 -14 -18 -17 -15 -3 3 0 12 7
21 18 21 23 19 10 -6z m-1510 0 c-25 -16 -96 -52 -88 -44 13 14 83 54 93 55 6
0 3 -5 -5 -11z m2067 -18 c20 -15 20 -17 5 -36 -9 -11 -10 -14 -2 -7 8 6 18
12 23 12 4 0 5 -6 1 -12 -6 -10 -4 -10 8 0 11 9 18 10 23 2 3 -6 10 -8 15 -5
14 9 -13 46 -28 40 -8 -3 -12 0 -9 7 2 7 15 12 27 10 29 -3 28 -2 34 -36 3
-15 10 -34 17 -42 9 -12 5 -14 -27 -14 -22 0 -66 7 -99 15 -33 8 -102 18 -153
21 -51 4 -90 9 -88 11 2 3 30 15 63 29 67 28 155 30 190 5z m-2476 -26 c59
-44 77 -79 35 -71 -17 3 -25 -1 -29 -14 -5 -20 12 -23 25 -5 10 14 22 -1 14
-20 -13 -34 -38 -29 -81 18 -38 42 -48 47 -86 48 -36 1 -39 2 -19 8 24 7 24 8
-8 15 -27 6 -39 3 -68 -19 -37 -29 -64 -77 -64 -117 0 -19 -2 -20 -11 -8 -8
11 -9 6 -5 -20 4 -23 18 -46 43 -69 l38 -34 -34 7 c-39 7 -41 9 -45 28 -2 7
-9 27 -15 43 -16 37 3 157 28 179 29 26 125 54 187 55 49 1 66 -3 95 -24z
m-1288 -90 l61 -70 -82 80 c-45 44 -82 84 -82 89 0 13 34 -19 103 -99z m15 65
c32 -16 51 -32 52 -42 0 -10 -4 -18 -8 -18 -12 0 -84 53 -102 75 -17 21 -11
19 58 -15z m1394 8 c-19 -19 -14 -32 6 -17 14 11 15 11 5 -1 -13 -14 -43 -23
-43 -12 0 7 32 42 39 42 3 0 0 -5 -7 -12z m183 4 c-2 -2 8 -20 21 -39 34 -51
30 -101 -6 -59 -6 8 -19 12 -28 9 -14 -4 -15 -3 -2 6 11 7 19 6 32 -6 10 -9
18 -11 18 -5 0 15 -31 31 -49 24 -8 -2 -11 0 -8 5 13 20 -84 -4 -109 -28 -21
-19 -25 -31 -22 -62 3 -34 2 -36 -10 -20 -27 37 26 122 77 124 23 0 24 1 6 8
-18 7 -17 9 10 24 46 25 16 19 -35 -6 -35 -18 -51 -34 -72 -77 l-28 -54 -1 40
c-1 38 -2 38 -9 9 -7 -29 -8 -29 -9 -4 0 14 6 34 15 45 8 10 12 12 8 4 -4 -8
6 -3 22 12 41 38 92 58 141 55 23 -1 40 -3 38 -5z m298 1 c-7 -2 -19 -2 -25 0
-7 3 -2 5 12 5 14 0 19 -2 13 -5z m323 -30 c-10 -10 -19 5 -10 18 6 11 8 11
12 0 2 -7 1 -15 -2 -18z m-2811 -22 c17 -7 15 -11 -22 -34 -78 -50 -190 -100
-207 -94 -24 10 -19 42 9 57 14 7 25 17 25 21 0 9 52 40 85 50 28 9 86 9 110
0z m2559 -2 c-2 -4 4 -6 13 -5 22 1 63 -60 63 -93 -1 -34 -28 -95 -29 -66 -2
48 -23 96 -46 107 -14 6 -22 15 -19 19 3 5 -2 6 -10 3 -9 -3 -16 -1 -16 5 0 6
-6 11 -13 11 -8 0 -14 6 -14 14 0 11 11 14 38 13 21 -1 36 -4 33 -8z m-764 -9
c0 -4 11 -13 25 -20 26 -14 26 -14 -22 -26 -26 -7 -51 -10 -54 -8 -4 2 -19 -8
-34 -22 -23 -21 -26 -31 -23 -69 3 -43 3 -44 -16 -26 -10 10 -20 38 -23 62 -8
70 39 118 115 116 17 -1 32 -4 32 -7z m353 -17 c-7 -2 -21 -2 -30 0 -10 3 -4
5 12 5 17 0 24 -2 18 -5z m19 -42 c-11 -7 -11 -9 2 -14 9 -4 16 -17 16 -30 0
-18 6 -23 28 -25 27 -2 59 29 47 47 -3 5 2 11 10 15 19 7 19 2 -2 -37 -9 -18
-16 -38 -14 -46 2 -10 -5 -12 -29 -7 -18 3 -43 6 -55 6 -12 0 -35 10 -50 22
l-28 22 34 28 c18 15 38 28 44 28 5 0 4 -4 -3 -9z m692 0 c4 -5 3 -17 0 -26
-5 -13 -8 -14 -15 -3 -5 7 -9 19 -9 26 0 14 16 16 24 3z m-2556 -17 c4 -6 23
-16 43 -23 20 -6 45 -21 55 -33 11 -12 13 -18 5 -13 -7 4 -52 9 -100 10 -77 3
-80 2 -26 -4 79 -10 133 -39 216 -117 55 -51 65 -66 51 -70 -42 -14 -62 -24
-93 -52 -65 -56 -96 -67 -194 -67 -85 0 -94 2 -160 38 l-70 38 40 -36 c22 -20
57 -47 78 -62 39 -27 46 -46 23 -68 -12 -13 -22 -12 -68 4 -109 37 -151 64
-257 164 l-54 51 49 43 c150 134 234 190 298 200 17 3 32 6 33 7 8 8 125 -1
131 -10z m1583 -5 c19 -19 25 -20 42 -10 17 11 23 10 40 -7 l20 -21 -38 -7
c-27 -5 -40 -3 -46 7 -8 12 -13 6 -10 -13 0 -3 -13 -11 -29 -17 -25 -8 -30 -7
-30 6 0 9 6 13 15 10 8 -4 17 -2 20 4 4 5 -1 12 -9 15 -10 4 -26 -5 -43 -23
-16 -16 -34 -32 -41 -34 -7 -2 -14 -12 -16 -22 -1 -9 -15 -31 -32 -48 -16 -18
-23 -29 -15 -24 9 5 12 3 9 -6 -3 -8 -10 -13 -16 -12 -5 1 -16 -5 -24 -14 -11
-14 -11 -16 1 -9 9 6 12 5 9 -5 -3 -8 -10 -13 -16 -12 -20 4 -54 -116 -46
-162 8 -47 13 -41 13 20 0 31 2 59 5 63 3 3 6 -18 6 -47 0 -33 8 -67 21 -92
25 -49 18 -64 -9 -20 -10 17 -21 28 -25 25 -5 -6 8 -25 54 -74 13 -15 18 -18
10 -8 -8 10 -12 21 -9 24 3 3 16 -9 28 -25 12 -17 18 -31 14 -31 -3 0 0 -8 7
-17 12 -14 12 -16 0 -8 -9 5 -12 4 -8 -3 11 -17 98 -42 141 -41 34 2 35 3 11
6 -38 5 -117 34 -110 41 2 3 25 -3 50 -13 34 -12 67 -16 120 -13 50 2 69 0 57
-6 -9 -5 -19 -12 -22 -15 -3 -3 -9 -6 -15 -6 -29 -1 -102 -18 -112 -27 -15
-12 -79 0 -94 19 -11 12 -8 13 17 9 21 -4 19 -2 -8 7 -47 15 -91 58 -127 122
-36 65 -44 110 -30 176 14 68 28 95 83 162 43 53 43 53 25 76 -27 33 -24 58
10 92 25 24 37 29 80 29 39 0 56 -5 72 -21z m2332 -13 c68 -28 285 -174 301
-203 5 -9 3 -19 -4 -26 -10 -9 -11 -9 -6 0 9 16 -3 43 -20 43 -8 0 -14 4 -14
8 0 5 -12 7 -27 4 -26 -3 -28 -7 -29 -53 0 -48 3 -53 36 -50 13 2 13 1 0 -8
-8 -6 -11 -11 -6 -11 21 0 -74 -64 -157 -105 -113 -57 -185 -79 -218 -66 -18
7 -20 10 -6 10 10 1 15 6 12 11 -3 6 -1 10 5 10 6 0 8 5 5 10 -3 6 -15 10 -26
10 -10 0 -19 5 -19 10 0 6 8 10 18 10 29 0 116 56 155 99 45 50 46 76 7 126
-67 84 -166 129 -270 123 -33 -1 -60 -1 -60 2 0 3 15 22 33 44 l32 38 95 -4
c74 -4 110 -11 163 -32z m-1723 4 c11 -8 7 -9 -15 -6 -16 3 -9 -1 18 -10 53
-17 64 -42 17 -40 -16 1 -30 4 -30 8 0 4 -7 5 -16 1 -13 -5 -13 -7 -2 -14 7
-5 8 -9 2 -9 -19 0 -24 13 -11 28 10 13 9 14 -10 4 -12 -7 -29 -9 -37 -6 -16
6 -22 35 -9 47 10 11 76 8 93 -3z m380 -37 c0 -5 -13 -23 -28 -42 l-28 -33 4
35 c4 33 12 41 45 46 4 0 7 -2 7 -6z m-880 -32 c-14 -5 -50 -16 -81 -25 -157
-46 -254 -208 -208 -347 7 -19 21 -45 33 -59 l21 -24 -25 16 c-80 50 -82 188
-4 309 19 29 34 49 34 44 0 -6 4 -5 8 1 18 26 88 69 130 80 54 14 136 18 92 5z
m2101 -19 c59 -29 149 -117 149 -147 0 -44 -78 -95 -176 -116 -54 -11 -67 -10
-129 9 -39 12 -96 38 -127 59 -54 35 -58 40 -58 75 0 34 6 42 55 80 30 24 69
48 87 55 49 19 145 11 199 -15z m-1681 1 c14 -4 30 -6 35 -5 6 1 37 -13 70
-31 44 -24 67 -44 89 -80 32 -52 45 -132 27 -163 -8 -15 -10 -7 -11 42 0 69
-29 137 -70 162 -22 14 -21 12 6 -19 38 -41 44 -58 50 -128 6 -70 -4 -61 -16
14 -12 72 -53 119 -144 163 -58 29 -156 49 -156 31 0 -4 14 -9 30 -11 30 -3
30 -4 15 -25 -19 -27 -62 -30 -103 -9 -58 29 -90 30 -133 2 -26 -18 -62 -30
-107 -35 -109 -14 -145 -37 -177 -113 -21 -52 -19 -95 9 -153 26 -57 58 -92
51 -56 -2 11 -13 31 -25 43 -19 20 -21 32 -18 94 8 117 47 162 147 171 l56 4
-45 -22 c-25 -12 -49 -21 -54 -20 -29 6 -75 -82 -76 -144 0 -22 11 -62 24 -90
15 -30 21 -52 15 -56 -6 -3 5 -12 23 -18 18 -7 42 -16 52 -20 13 -5 6 -7 -21
-7 -22 1 -46 6 -54 11 -8 6 -30 18 -49 28 -63 32 -102 169 -70 251 5 14 6 26
1 26 -5 0 -14 -14 -20 -31 -23 -65 -7 -190 27 -218 15 -12 14 -12 -8 -6 -59
17 -86 74 -75 157 20 141 103 218 239 222 29 0 49 4 44 7 -6 4 -8 15 -4 24 5
13 14 16 39 11 52 -10 241 -26 246 -21 2 3 -7 5 -20 6 -16 1 -10 5 21 14 42
12 83 12 140 -2z m-890 -23 c-5 -10 -10 -31 -11 -47 -1 -26 -2 -26 -9 7 -9 36
4 75 21 65 6 -4 5 -13 -1 -25z m850 -29 c0 -16 -27 -37 -36 -28 -4 4 25 47 32
47 2 0 4 -9 4 -19z m-697 2 c4 -3 -1 -15 -10 -26 -10 -10 -17 -22 -15 -26 1
-3 -4 -6 -10 -6 -7 0 -14 8 -16 18 -6 31 31 60 51 40z m839 -51 c44 -40 61
-99 55 -184 -8 -103 -19 -128 -74 -162 -55 -33 -96 -41 -138 -26 -29 10 -29
10 7 5 49 -7 127 39 151 91 39 81 30 179 -19 225 l-27 24 16 -26 c55 -85 13
-243 -73 -279 -26 -11 -34 -11 -45 1 -13 12 -11 23 10 74 44 107 26 175 -61
233 l-49 32 45 0 c29 1 60 9 85 24 37 22 42 23 65 9 14 -9 37 -27 52 -41z
m-339 31 c-13 -2 -33 -2 -45 0 -13 2 -3 4 22 4 25 0 35 -2 23 -4z m78 -49 c32
-14 60 -33 64 -42 5 -14 4 -14 -12 0 -38 33 -91 52 -163 58 l-75 7 64 1 c49 2
77 -4 122 -24z m649 19 c0 -5 -24 -23 -53 -42 -34 -22 -47 -28 -38 -15 34 45
91 81 91 57z m-1375 -23 c3 -5 1 -10 -4 -10 -6 0 -11 5 -11 10 0 6 2 10 4 10
3 0 8 -4 11 -10z m712 -11 c34 -13 80 -55 99 -91 16 -31 19 -94 4 -103 -6 -4
-10 7 -10 25 0 69 -57 145 -125 166 -26 8 -33 12 -18 13 12 1 34 -4 50 -10z
m-28 -39 c46 -23 74 -74 65 -119 -7 -36 13 -72 27 -49 7 10 9 9 9 -3 0 -22
-39 -78 -72 -102 -33 -25 -117 -33 -175 -18 -69 19 -126 97 -113 156 1 6 3 17
4 24 2 8 9 17 17 19 11 3 11 1 -1 -7 -10 -7 -11 -11 -2 -11 6 0 12 -5 12 -11
0 -5 -5 -7 -10 -4 -19 11 1 -48 27 -83 13 -18 35 -39 48 -48 33 -22 96 -29
136 -15 41 13 107 72 101 89 -2 7 -13 -2 -26 -20 -31 -48 -80 -70 -138 -64
-44 5 -105 33 -94 44 3 2 -4 16 -14 30 -14 17 -20 40 -20 78 0 48 4 58 36 94
34 37 40 40 91 40 34 0 68 -7 92 -20z m-548 -21 c-5 -13 -10 -19 -10 -12 -1
15 10 45 15 40 3 -2 0 -15 -5 -28z m1179 3 c-30 -15 -57 -30 -60 -33 -8 -9
-50 -18 -45 -9 3 5 -3 11 -14 15 -10 3 -26 14 -35 24 -17 18 -15 18 23 -1 43
-21 72 -17 139 18 15 8 32 14 37 13 6 0 -15 -12 -45 -27z m-875 0 c-11 -10
-25 -27 -31 -38 -17 -30 -11 -134 10 -169 l18 -30 -25 28 c-40 42 -49 90 -31
154 9 29 19 51 23 48 5 -2 17 2 27 10 27 20 33 18 9 -3z m-1305 -103 c0 -78
-1 -80 -22 -77 -28 4 -52 51 -43 85 5 23 47 73 60 73 3 0 5 -36 5 -81z m2120
-25 c22 -9 40 -19 40 -23 0 -10 -103 -12 -119 -2 -19 12 -6 41 18 41 12 0 39
-7 61 -16z m-2264 -40 c-25 -45 -25 -46 -6 -51 11 -3 20 -8 20 -12 -1 -10 -43
-37 -79 -49 -40 -14 -121 -16 -121 -3 0 5 24 18 53 30 88 36 101 45 125 89 13
23 26 42 29 42 2 0 -7 -21 -21 -46z m2168 -63 c11 -12 14 -21 8 -21 -15 0 -52
37 -52 51 0 17 -29 -9 -45 -41 -19 -37 -87 -82 -111 -74 -16 5 -16 4 -4 -5 12
-8 8 -11 -20 -11 l-35 0 29 15 c16 9 38 17 48 18 24 4 68 47 68 67 0 8 19 36
43 61 l42 45 5 -42 c3 -24 14 -52 24 -63z m64 28 c-20 -13 -28 -11 -22 5 3 8
12 12 21 9 12 -5 12 -7 1 -14z m-2132 -147 c-43 -41 -45 -42 -37 -15 8 24 49
106 70 138 3 6 7 -10 9 -34 3 -41 0 -48 -42 -89z m-35 109 c22 35 7 -34 -20
-90 -43 -91 -74 -126 -138 -157 -59 -27 -267 -98 -335 -113 l-37 -9 14 27 c48
90 162 219 220 248 11 6 59 14 107 18 83 6 90 9 130 45 24 21 45 33 47 28 2
-6 7 -4 12 3z m2143 -65 c-3 -7 -18 -22 -33 -34 l-28 -20 -11 34 c-7 24 -7 34
1 34 8 0 7 4 -1 12 -7 7 -12 20 -12 30 0 15 7 13 45 -13 25 -17 42 -35 39 -43z
m1062 -2 c48 -20 54 -17 15 7 -58 35 -24 42 65 14 101 -33 122 -51 56 -48
l-47 2 50 -8 c28 -5 53 -7 56 -5 9 5 67 -55 133 -136 l59 -73 -54 6 c-57 6
-197 58 -214 79 -5 7 -35 25 -66 40 -61 29 -123 78 -141 111 -10 20 -10 20 17
-1 15 -12 37 -22 49 -22 17 1 14 5 -14 19 -19 11 -44 29 -55 42 -11 12 -14 19
-6 14 11 -6 13 -3 8 14 -5 20 -2 18 25 -9 16 -18 45 -38 64 -46z m-4129 9 c-3
-10 -5 -4 -5 12 0 17 2 24 5 18 2 -7 2 -21 0 -30z m2503 -3 c-8 -5 -24 -10
-35 -10 -17 0 -17 2 -5 10 8 5 24 10 35 10 17 0 17 -2 5 -10z m116 -6 c-4 -9
-1 -23 5 -31 17 -20 2 -30 -17 -11 -13 13 -14 19 -2 37 15 25 23 28 14 5z
m309 7 c-3 -5 -1 -12 5 -16 5 -3 10 -26 10 -50 0 -42 -2 -46 -41 -66 l-41 -21
16 23 c9 13 16 31 16 40 0 18 -26 33 -40 24 -5 -3 -11 -1 -15 5 -4 6 -16 3
-32 -10 -18 -14 -30 -17 -42 -10 -10 5 -23 5 -32 -1 -23 -15 -39 -10 -39 12 0
11 -5 17 -10 14 -6 -3 -8 -16 -5 -28 5 -17 -1 -26 -25 -40 -29 -17 -50 -16
-50 3 0 5 14 17 31 25 19 10 29 22 25 30 -10 26 24 47 63 41 93 -17 110 -17
132 -5 13 7 27 12 32 11 4 -1 7 3 7 9 0 5 5 7 10 4 6 -4 7 -11 4 -17 -4 -7 -2
-8 4 -4 6 4 9 13 5 21 -3 8 0 15 7 15 6 0 9 -4 5 -9z m1899 -17 c10 -25 1 -27
-19 -4 -15 17 -16 20 -3 20 9 0 19 -7 22 -16z m-4802 -28 c4 -6 19 -11 34 -11
39 0 40 -20 2 -38 -18 -9 -27 -17 -20 -17 7 0 22 5 33 11 15 8 25 6 46 -10 14
-12 36 -21 49 -21 13 0 24 -4 24 -9 0 -15 -35 -23 -67 -16 -77 18 -92 27 -117
70 -14 24 -26 48 -26 54 0 12 32 2 42 -13z m2579 -37 c9 0 10 -2 2 -5 -15 -7
-53 13 -53 28 0 6 8 4 18 -5 10 -10 25 -17 33 -18z m223 -14 c-4 -10 -19 -15
-48 -14 -27 1 -32 3 -16 6 14 3 29 9 35 14 15 15 35 10 29 -6z m-2479 -4 c-7
-12 -111 -51 -133 -50 -9 0 5 7 33 16 27 8 58 21 69 29 23 16 40 19 31 5z
m1959 -41 c10 -13 9 -13 -6 -1 -10 7 -17 23 -17 35 1 20 2 20 6 1 3 -11 10
-27 17 -35z m205 4 c32 -27 56 -62 48 -70 -2 -3 -20 11 -40 31 -31 31 -41 35
-85 35 -28 0 -58 3 -68 7 -16 6 -16 7 2 14 10 4 40 8 66 8 36 1 53 -5 77 -25z
m218 11 c0 -8 -8 -15 -18 -15 -26 0 -50 -11 -44 -21 7 -10 -56 -23 -82 -16
-17 4 -17 4 2 11 11 5 45 18 75 31 67 29 67 29 67 10z m1278 -5 c-3 -5 -12
-10 -18 -10 -7 0 -6 4 3 10 19 12 23 12 15 0z m-1398 -16 c-3 -3 -12 -4 -19
-1 -8 3 -5 6 6 6 11 1 17 -2 13 -5z m-162 -24 c-15 -7 -9 -8 22 -6 28 3 46 -1
54 -10 16 -20 5 -28 -21 -14 -11 6 -33 10 -48 9 -15 -1 -47 -1 -71 -1 -74 3
-25 27 59 30 23 1 23 0 5 -8z m325 -9 c-8 -5 -30 -12 -47 -16 -26 -5 -33 -3
-33 9 0 12 11 16 48 16 31 -1 42 -3 32 -9z m-1770 -36 c0 -24 -5 -35 -15 -35
-8 0 -15 -5 -15 -11 0 -5 -4 -8 -9 -4 -17 10 -51 -46 -51 -83 l0 -35 -20 26
c-39 49 -16 123 48 156 53 29 62 26 62 -14z m1477 9 c-3 -3 -12 -4 -19 -1 -8
3 -5 6 6 6 11 1 17 -2 13 -5z m1457 -19 c-8 -19 13 -73 39 -102 l20 -23 -32 0
c-31 0 -91 27 -91 41 0 14 52 99 61 99 4 0 6 -7 3 -15z m629 8 c-7 -2 -21 -2
-30 0 -10 3 -4 5 12 5 17 0 24 -2 18 -5z m374 -9 c6 -17 -21 -43 -49 -50 -36
-8 -36 8 -1 41 28 25 44 28 50 9z m-787 -38 c0 -17 -13 -28 -55 -49 -64 -31
-82 -33 -113 -11 -23 16 -30 58 -12 69 6 4 10 -5 10 -19 0 -53 78 -40 95 15 3
10 18 19 33 21 36 5 42 1 42 -26z m160 3 l25 -20 -32 16 c-18 8 -33 18 -33 20
0 10 16 4 40 -16z m529 -28 l-1 -26 -7 25 c-4 16 -15 26 -31 28 -22 4 -23 2
-10 -14 14 -16 13 -16 -9 -5 -14 8 -42 11 -68 8 -25 -2 -41 -1 -36 4 4 4 35
10 67 13 32 3 61 7 64 10 11 12 32 -17 31 -43z m-272 -74 c10 -9 1 -12 -40
-10 -40 2 -46 0 -27 -6 14 -5 39 -9 55 -10 18 -1 59 -19 99 -45 37 -25 83 -50
103 -57 26 -8 32 -14 22 -20 -10 -6 -5 -9 16 -9 17 0 37 -5 45 -10 31 -20 -69
-10 -147 15 -94 29 -210 99 -276 165 l-49 49 94 -25 c51 -14 98 -30 105 -37z
m148 37 c-10 -8 -22 -14 -27 -14 -4 0 -8 -8 -8 -17 0 -15 2 -15 9 -4 8 12 15
11 51 -3 41 -16 42 -16 72 9 17 14 36 24 42 22 19 -6 18 -42 -3 -69 -25 -31
-105 -45 -129 -22 -7 8 -18 11 -23 8 -16 -10 -49 27 -49 54 0 36 25 60 57 54
25 -5 25 -6 8 -18z m-3723 -38 c16 -23 7 -26 -24 -9 -18 10 -35 19 -37 20 -1
1 0 6 4 12 7 12 44 -3 57 -23z m2873 14 c3 -5 -1 -10 -9 -10 -9 0 -16 5 -16
10 0 6 4 10 9 10 6 0 13 -4 16 -10z m-3275 -4 c0 -2 -19 -15 -42 -30 l-43 -27
35 31 c30 27 50 37 50 26z m3771 -13 c13 -16 12 -17 -3 -4 -17 13 -22 21 -14
21 2 0 10 -8 17 -17z m-4213 -4 c-2 -6 -8 -10 -13 -10 -5 0 -11 4 -13 10 -2 6
4 11 13 11 9 0 15 -5 13 -11z m3749 -5 c-3 -3 -12 -4 -19 -1 -8 3 -5 6 6 6 11
1 17 -2 13 -5z m548 -62 c-3 -3 -20 9 -38 27 l-32 34 38 -28 c21 -15 35 -30
32 -33z m445 48 c0 -5 -4 -10 -10 -10 -5 0 -10 5 -10 10 0 6 5 10 10 10 6 0
10 -4 10 -10z m-982 -15 c-11 -11 -68 -23 -68 -15 0 5 10 11 23 13 35 7 51 7
45 2z m-3189 -51 c51 -36 78 -155 48 -214 -15 -31 -71 -60 -115 -60 -37 0
-102 25 -114 43 -20 31 -8 70 37 113 24 24 58 64 75 89 17 25 34 45 38 45 4 0
18 -7 31 -16z m3584 -38 c15 -31 40 -65 61 -81 48 -36 70 -78 56 -104 -12 -23
-87 -61 -119 -61 -32 0 -88 28 -96 47 -11 29 -18 130 -11 166 7 38 46 87 70
87 8 0 26 -24 39 -54z m-3303 19 c0 -14 -4 -25 -10 -25 -11 0 -14 33 -3 43 11
11 13 8 13 -18z m908 -57 c18 -23 32 -45 32 -50 0 -17 -80 -8 -100 12 -25 25
-26 67 -2 73 33 9 38 7 70 -35z m1825 -38 l6 -65 -19 40 c-22 48 -24 67 -8 83
6 6 12 11 14 9 1 -1 4 -31 7 -67z m-2893 -50 c23 -62 24 -142 3 -168 -13 -15
-13 -14 -3 6 9 18 8 22 -5 22 -8 0 -15 -5 -15 -11 0 -12 -110 -63 -118 -54 -3
3 0 5 6 5 6 0 25 30 43 68 28 57 33 78 33 144 1 74 2 76 19 60 9 -10 26 -42
37 -72z m-615 45 c-22 -13 -59 -27 -83 -31 -48 -7 -70 2 -26 11 16 3 49 14 74
25 64 26 82 24 35 -5z m3943 0 c3 11 11 -26 17 -82 11 -95 14 -105 49 -148 29
-35 37 -51 32 -70 -4 -16 -2 -25 5 -25 7 0 10 -3 6 -6 -14 -14 -96 38 -122 77
-58 89 -69 167 -33 236 22 40 23 41 32 20 9 -21 9 -21 14 -2z m-4098 -24 c0
-5 -9 -7 -20 -4 -11 3 -20 7 -20 9 0 2 9 4 20 4 11 0 20 -4 20 -9z m1868 -9
c40 4 45 -13 9 -30 -35 -17 -89 -18 -114 -3 -15 9 -13 10 12 5 23 -4 26 -3 15
5 -8 6 -11 11 -6 11 5 0 3 6 -3 14 -11 13 -7 13 22 5 19 -5 49 -8 65 -7z
m2917 8 c4 -6 -5 -10 -20 -10 -15 0 -24 4 -20 10 3 6 12 10 20 10 8 0 17 -4
20 -10z m35 -20 c0 -5 -5 -10 -11 -10 -5 0 -7 5 -4 10 3 6 8 10 11 10 2 0 4
-4 4 -10z m-4843 -16 c-3 -3 -12 -4 -19 -1 -8 3 -5 6 6 6 11 1 17 -2 13 -5z
m96 -1 c-7 -2 -19 -2 -25 0 -7 3 -2 5 12 5 14 0 19 -2 13 -5z m218 -67 c14 -6
29 -42 42 -101 3 -11 8 -27 11 -36 5 -12 -1 -15 -36 -13 -33 1 -47 8 -65 30
-31 40 -38 79 -19 109 16 24 32 27 67 11z m1553 -50 c-3 -8 -24 -16 -50 -18
-49 -4 -49 -3 -31 17 17 19 88 20 81 1z m2070 -28 c21 -30 20 -35 -6 -34 -17
1 -24 -6 -29 -29 l-6 -30 -22 48 c-12 26 -19 52 -16 57 12 19 63 11 79 -12z
m-1846 -36 c7 -22 -13 -12 -33 16 l-19 27 24 -16 c13 -9 26 -21 28 -27z m1626
16 c39 -55 4 -108 -70 -108 -71 0 -113 35 -99 81 15 48 141 67 169 27z m-3632
-31 c-6 -6 -22 -32 -37 -57 -22 -38 -25 -41 -19 -15 4 17 19 42 33 58 26 27
42 38 23 14z m2184 0 c8 -23 -12 -60 -56 -105 -39 -38 -42 -46 -37 -80 4 -24
17 -47 37 -64 36 -33 30 -36 -13 -7 l-32 21 27 -24 c15 -12 38 -31 51 -40 63
-44 92 -193 53 -271 -46 -94 -195 -129 -262 -62 -19 19 -24 36 -25 77 l-2 53
-10 -59 c-8 -51 -7 -60 7 -68 9 -5 16 -14 16 -21 0 -7 -13 2 -29 19 -23 25
-29 43 -35 103 -3 40 -4 77 -1 81 3 5 -5 12 -18 16 -39 9 -77 57 -92 113 -12
45 -12 51 1 40 11 -9 14 -9 14 1 0 6 13 1 30 -13 16 -14 35 -27 42 -30 20 -8
-13 -28 -37 -23 -20 5 -20 5 -1 -9 27 -20 32 -19 68 15 31 30 40 34 68 30 17
-2 40 -28 40 -44 0 -6 -7 -3 -14 6 -7 10 -16 15 -19 11 -13 -12 -7 -54 8 -59
23 -9 6 -26 -18 -18 -20 5 -20 5 -5 -7 9 -8 18 -23 20 -34 2 -10 17 -28 33
-40 21 -14 29 -26 26 -40 l-4 -20 -8 20 c-7 17 -8 18 -8 2 -1 -22 41 -39 75
-31 95 24 99 190 5 239 -36 18 -52 44 -51 82 1 15 -2 49 -6 74 -6 42 -3 49 26
82 17 20 49 47 71 59 21 12 39 25 39 30 0 13 20 9 26 -5z m124 -52 c0 -14 -4
-25 -9 -25 -16 0 -41 -79 -41 -128 0 -28 8 -64 20 -87 11 -22 20 -57 20 -80
l-1 -40 -13 35 c-7 19 -24 57 -39 85 -38 71 -37 137 3 196 16 24 30 50 30 57
0 6 7 12 15 12 9 0 15 -9 15 -25z m665 6 c-6 -5 -21 -12 -35 -16 -24 -7 -24
-7 -5 9 21 16 56 23 40 7z m-2885 -47 c24 -25 24 -26 2 -15 -32 17 -58 6 -77
-34 -19 -42 -32 -44 -42 -7 -9 33 -6 50 13 79 12 19 18 20 46 12 18 -5 44 -21
58 -35z m743 30 c19 -6 37 -42 37 -72 0 -14 -3 -14 -18 4 -35 44 -56 47 -128
18 -36 -14 -68 -23 -71 -20 -4 3 0 6 7 6 7 0 28 11 46 25 18 14 38 25 44 25 7
0 10 6 7 14 -4 10 3 12 26 10 18 -3 40 -7 50 -10z m3851 7 c3 -5 -2 -15 -12
-22 -15 -12 -16 -12 -5 2 7 9 10 19 6 22 -3 4 -4 7 0 7 3 0 8 -4 11 -9z
m-2788 -23 c4 -7 3 -8 -4 -4 -16 9 -15 -7 0 -22 9 -9 8 -12 -5 -12 -17 0 -24
30 -10 43 9 9 11 9 19 -5z m543 -42 c42 -74 41 -106 -9 -160 -22 -23 -46 -58
-54 -77 -14 -31 -15 -32 -16 -9 0 25 17 56 52 94 28 31 31 68 8 125 -19 49
-25 81 -16 81 3 0 18 -24 35 -54z m-109 -3 c0 -16 3 -39 6 -53 4 -20 3 -22 -5
-10 -10 13 -11 13 -11 0 1 -19 19 -43 45 -57 19 -11 18 -12 -7 -24 -15 -6 -28
-18 -30 -26 -2 -8 -15 4 -31 29 -21 32 -27 50 -22 73 3 17 7 40 8 52 1 12 6
25 10 29 4 5 5 0 2 -11 -4 -15 -3 -15 6 3 16 30 29 28 29 -5z m-615 7 c3 -5
-1 -10 -9 -10 -9 0 -16 5 -16 10 0 6 4 10 9 10 6 0 13 -4 16 -10z m2118 -15
c-3 -9 -8 -14 -10 -11 -3 3 -2 9 2 15 9 16 15 13 8 -4z m847 -87 c0 -37 -4
-50 -20 -58 -11 -6 -25 -8 -30 -5 -15 9 -12 48 5 71 8 10 15 33 15 49 1 29 1
29 15 11 8 -11 15 -41 15 -68z m-2015 41 c0 -28 -29 -38 -39 -13 -7 19 11 47
28 41 6 -2 11 -14 11 -28z m-2585 17 c0 -2 -7 -7 -16 -10 -8 -3 -12 -2 -9 4 6
10 25 14 25 6z m3458 -48 c4 -34 -13 -36 -39 -7 -22 25 -16 41 14 37 16 -2 23
-11 25 -30z m404 10 c6 -13 14 -41 17 -63 5 -29 13 -43 31 -52 14 -7 23 -13
20 -13 -3 0 -32 -3 -65 -6 -33 -3 -75 -14 -92 -25 -18 -10 -33 -16 -33 -13 0
13 72 160 87 176 20 23 20 23 35 -4z m-1028 -48 c-3 -14 -7 -31 -7 -38 0 -18
-67 -62 -94 -62 -12 0 -28 -9 -36 -20 -8 -11 -17 -17 -20 -13 -15 15 -5 43 23
65 67 51 100 81 100 90 0 5 -10 -1 -22 -14 -13 -13 -17 -17 -10 -8 6 9 12 22
12 28 0 7 7 12 15 12 8 0 15 6 15 13 0 6 7 3 16 -8 9 -13 12 -29 8 -45z m170
28 c14 -24 -1 -36 -17 -13 -8 10 -20 15 -28 12 -10 -4 -9 -6 4 -6 20 -1 22
-14 3 -30 -19 -16 -40 11 -31 39 8 26 52 24 69 -2z m553 -10 c-3 -7 -5 -2 -5
12 0 14 2 19 5 13 2 -7 2 -19 0 -25z m623 12 l25 -7 -28 -12 c-50 -20 -101
-14 -128 15 l-24 26 65 -8 c36 -4 76 -10 90 -14z m-3511 -9 c-7 -10 -21 -24
-33 -31 -15 -9 -12 -3 8 19 34 35 41 39 25 12z m71 -9 c0 -9 11 -41 25 -70 23
-50 32 -92 20 -92 -3 0 -24 9 -46 21 -22 11 -63 23 -90 26 -27 3 -49 9 -49 12
0 3 25 21 56 39 41 25 56 41 61 63 6 30 23 31 23 1z m1905 -2 c-20 -22 -31
-20 -22 5 4 8 14 15 23 15 16 0 16 -2 -1 -20z m1640 0 c-27 -12 -35 -12 -35 0
0 6 12 10 28 9 24 0 25 -1 7 -9z m-75 -20 c-8 -5 -24 -9 -35 -9 -16 1 -16 2 5
9 35 11 48 11 30 0z m-1752 -12 c27 -27 14 -72 -33 -118 -41 -40 -45 -49 -45
-91 0 -53 15 -103 29 -95 4 3 16 -3 25 -13 14 -15 14 -20 3 -29 -11 -9 -19 -5
-39 16 -40 43 -58 87 -58 144 0 73 16 122 52 163 32 37 47 42 66 23z m693 -37
c-17 -31 -13 -36 12 -15 l22 19 -23 -26 c-12 -14 -24 -35 -27 -47 -5 -30 -21
-56 -27 -46 -3 5 7 45 21 89 14 44 27 72 29 63 2 -9 -2 -26 -7 -37z m225 34
c12 -31 -8 -87 -43 -123 l-35 -37 22 37 c12 21 18 43 15 49 -4 6 3 21 16 35
l22 24 -21 0 c-22 0 -28 10 -15 23 11 12 33 7 39 -8z m-2716 -15 c-14 -11 -29
-20 -35 -20 -5 0 -3 5 5 10 8 5 11 10 7 10 -5 0 -5 5 -2 10 3 6 16 10 28 10
22 0 22 -1 -3 -20z m2190 10 c0 -5 -5 -10 -11 -10 -5 0 -7 5 -4 10 3 6 8 10
11 10 2 0 4 -4 4 -10z m1630 -48 c0 -7 -4 -10 -10 -7 -5 3 -10 16 -10 28 0 18
2 19 10 7 5 -8 10 -21 10 -28z m-794 -67 c-32 -69 -54 -100 -39 -57 17 51 68
153 71 143 2 -6 -12 -45 -32 -86z m-1081 75 c3 -5 -3 -10 -14 -10 -12 0 -21 5
-21 10 0 6 6 10 14 10 8 0 18 -4 21 -10z m-2381 -15 c-4 -8 -11 -15 -16 -15
-6 0 -5 6 2 15 7 8 14 15 16 15 2 0 1 -7 -2 -15z m-311 -45 c-6 -6 -33 30 -33
44 0 6 9 0 20 -14 10 -14 16 -27 13 -30z m378 12 c-40 -26 -81 -85 -81 -118 0
-16 -2 -17 -10 -4 -27 42 2 109 61 138 58 29 81 17 30 -16z m3831 -8 c60 -30
126 -90 151 -136 16 -30 16 -31 0 -9 -9 13 -53 52 -96 87 -78 63 -80 64 -139
64 -162 0 -231 -73 -232 -242 -1 -49 0 -88 0 -88 1 0 16 22 34 50 65 102 164
170 245 170 46 0 103 -21 127 -48 l23 -25 -28 18 c-20 13 -38 16 -68 11 -102
-16 -165 -78 -240 -234 -78 -163 -139 -213 -318 -258 -167 -43 -355 -32 -573
33 -48 14 -85 30 -82 34 3 5 38 10 77 11 l72 2 -67 3 c-42 3 -71 9 -78 18 -11
13 3 15 99 15 176 0 240 13 367 75 139 69 221 139 263 228 16 34 32 80 36 102
l7 40 -23 -20 c-12 -11 -20 -15 -16 -9 15 26 116 93 162 108 67 22 162 35 208
30 21 -2 61 -16 89 -30z m138 27 c0 -6 21 -11 46 -13 37 -2 51 -9 67 -30 22
-29 34 -116 21 -141 -6 -11 -9 -2 -9 28 0 54 -29 88 -94 110 -34 11 -47 21
-48 35 -1 11 2 20 8 20 5 0 9 -4 9 -9z m-1193 -38 c-4 -24 0 -57 12 -89 17
-51 17 -52 -6 -78 -26 -30 -30 -79 -11 -121 9 -21 9 -28 -1 -34 -16 -10 19
-21 66 -21 47 0 97 47 118 113 9 28 34 75 55 102 21 28 50 70 65 95 l27 45 -5
-58 c-10 -107 -113 -284 -188 -323 -16 -8 -50 -14 -76 -14 -37 0 -44 -3 -33
-11 25 -18 -78 -2 -109 17 -30 18 -62 64 -72 104 -6 21 -7 19 -8 -12 -1 -41
-3 -43 -32 -28 -25 14 -24 10 7 -56 36 -75 80 -98 178 -92 40 3 62 2 51 -3
-54 -21 -303 8 -425 50 l-55 20 40 2 c22 1 46 2 53 2 6 -1 12 3 12 8 0 5 7 9
16 9 13 0 14 3 5 13 -6 8 -8 17 -4 20 3 4 1 7 -6 7 -7 0 1 11 17 25 17 14 33
25 37 25 3 0 13 7 21 15 9 8 12 15 7 15 -5 0 -15 -6 -22 -12 -22 -23 11 44 49
95 29 41 35 46 42 30 6 -12 7 -9 3 10 -3 15 -1 27 4 27 4 0 12 -33 16 -72 l8
-73 11 60 c15 74 27 97 82 157 24 26 44 52 44 58 0 5 3 10 6 10 4 0 4 -17 1
-37z m-2362 17 c6 0 3 -5 -6 -10 -16 -9 -137 5 -149 17 -3 3 29 3 70 0 41 -4
80 -7 85 -7z m2070 -24 c-11 -8 -24 -12 -29 -8 -5 3 -1 9 10 13 31 12 39 10
19 -5z m-1985 -37 c0 -10 -6 -19 -14 -19 -19 0 -29 17 -16 25 6 4 8 11 5 16
-3 5 1 6 9 3 9 -3 16 -15 16 -25z m1904 25 c21 -8 20 -21 -4 -51 -12 -16 -20
-41 -20 -67 -1 -22 -7 -52 -15 -66 -8 -14 -14 -21 -15 -16 0 5 -7 3 -15 -4 -8
-7 -13 -16 -10 -20 3 -4 -22 -7 -54 -6 -48 1 -57 -1 -48 -12 9 -11 5 -11 -22
0 -51 20 -42 33 27 38 54 4 68 9 88 33 20 23 23 35 18 71 -4 25 -1 53 5 67
l12 24 -20 -24 c-20 -22 -21 -22 -21 -3 0 33 51 53 94 36z m-1934 -66 c30 -41
30 -41 30 -182 l-1 -141 -34 37 c-37 40 -46 87 -24 131 10 21 10 21 -5 3 -26
-32 -20 -88 14 -134 17 -23 35 -42 40 -42 6 0 10 -36 10 -86 0 -84 0 -85 -22
-78 -44 13 -107 55 -146 98 -38 41 -45 57 -87 200 -23 80 -74 135 -134 143
-50 7 -39 17 31 27 56 8 101 -8 160 -59 49 -41 92 -46 132 -14 38 30 36 77 -6
125 -27 31 -29 35 -10 25 12 -7 36 -30 52 -53z m1465 5 c-8 -59 -24 -111 -35
-118 -5 -3 -3 11 4 32 7 21 16 59 20 86 4 26 9 47 12 47 3 0 2 -21 -1 -47z
m-287 17 c10 -16 10 -20 -1 -20 -14 0 -37 20 -37 32 0 16 25 8 38 -12z m575
-49 c12 0 16 3 10 6 -7 2 -13 11 -13 20 0 8 6 13 13 11 20 -7 15 -52 -7 -56
-21 -5 -36 14 -34 43 1 17 1 17 5 -2 3 -16 11 -23 26 -22z m621 -14 c7 -5 3
-7 -9 -5 -13 2 -21 12 -23 28 -2 24 -2 24 9 5 7 -11 17 -24 23 -28z m-725
-167 c55 -55 96 -85 148 -110 40 -19 73 -38 73 -42 0 -11 -43 1 -52 14 -4 7
-8 9 -8 3 0 -5 -5 -3 -11 5 -9 12 -10 11 -6 -6 4 -17 1 -20 -15 -16 -11 3 -15
8 -9 11 6 4 1 12 -12 20 -20 13 -21 13 -8 -2 25 -31 -2 -17 -55 28 -77 66
-185 226 -184 272 1 10 15 -9 32 -42 19 -37 60 -89 107 -135z m-151 115 c0
-16 -2 -15 -8 5 -4 14 -8 34 -8 45 0 16 2 15 8 -5 4 -14 8 -34 8 -45z m-2112
-37 c23 -45 12 -43 -13 3 -12 21 -17 37 -12 33 5 -3 16 -19 25 -36z m2091 -15
c-3 -10 -5 -2 -5 17 0 19 2 27 5 18 2 -10 2 -26 0 -35z m2383 19 c39 -19 76
-68 90 -121 10 -38 -8 -133 -29 -154 -16 -16 -14 5 4 39 17 33 20 101 5 124
-7 11 -10 6 -10 -20 -1 -19 -6 -48 -13 -64 -12 -27 -13 -28 -27 -10 -12 15
-12 16 -1 9 11 -6 13 -4 6 11 -4 10 -11 39 -15 63 -4 24 -16 50 -26 58 -30 22
-86 20 -124 -5 l-25 -15 19 29 19 29 -26 -24 c-31 -28 -57 -80 -57 -114 0 -33
-8 -37 -50 -27 -19 4 -27 8 -17 9 20 1 23 21 3 21 -11 0 -12 5 -3 25 7 14 15
25 20 25 4 0 7 5 7 12 0 20 51 79 62 72 7 -4 8 -2 4 5 -11 16 50 40 104 41 25
0 61 -8 80 -18z m-2228 -127 c49 -52 116 -110 147 -129 31 -19 122 -56 203
-82 85 -28 143 -51 136 -55 -16 -10 -12 -13 42 -31 44 -15 44 -16 20 -26 -25
-11 -24 -11 8 -11 34 -1 102 -25 102 -37 0 -3 -11 -3 -24 0 -16 4 -26 1 -29
-8 -4 -9 0 -12 13 -9 10 3 21 0 24 -6 4 -6 2 -11 -4 -11 -6 0 -9 -4 -6 -9 3
-5 -5 -8 -19 -7 -14 0 -25 6 -25 12 0 6 -7 17 -15 24 -20 17 -19 31 3 23 9 -3
14 -3 10 2 -11 12 -119 35 -170 35 -27 0 -53 -6 -60 -14 -10 -9 -20 -11 -31
-4 -27 14 -20 38 16 53 17 8 25 14 16 15 -111 2 -364 179 -428 299 -53 99 -45
97 71 -24z m-639 -33 c7 1 22 -3 34 -10 35 -19 123 -23 183 -7 69 18 75 13 13
-11 -63 -24 -159 -25 -194 -1 -26 17 -27 17 -32 -2 -5 -22 -65 -55 -117 -65
l-35 -6 32 29 c39 35 48 66 40 134 l-6 51 35 -57 c20 -32 41 -56 47 -55z m413
35 c-30 -81 -92 -165 -148 -202 -55 -36 -138 -115 -138 -130 0 -29 -82 -75
-133 -75 -17 0 -16 3 9 23 36 28 73 69 74 82 0 6 31 30 68 55 90 60 203 176
248 256 20 36 38 63 41 61 2 -3 -7 -34 -21 -70z m317 38 c20 -8 39 -20 42 -26
4 -6 -13 -1 -36 11 -66 34 -69 42 -6 15z m-499 -27 c-3 -4 -13 -8 -22 -8 -21
0 -48 -17 -41 -25 3 -3 22 2 42 10 43 18 47 18 47 5 0 -5 -16 -12 -35 -16 -19
-3 -32 -10 -29 -15 3 -5 -11 -9 -30 -9 -25 0 -39 6 -50 22 -27 38 -20 44 53
44 38 0 67 -4 65 -8z m-361 -13 c-3 -9 -8 -14 -10 -11 -3 3 -2 9 2 15 9 16 15
13 8 -4z m680 -111 c30 -58 84 -108 137 -125 33 -11 66 -26 190 -82 30 -14 66
-35 80 -46 15 -13 -6 -6 -55 18 -44 21 -107 46 -140 56 -32 9 -80 27 -106 40
-83 43 -160 154 -158 231 l0 39 13 -40 c7 -22 25 -63 39 -91z m993 101 c-9 -9
-19 -22 -23 -29 -11 -18 -82 -61 -113 -69 -22 -5 -23 -4 -6 6 11 7 47 33 80
59 60 46 92 62 62 33z m-1202 -27 c-38 -43 -56 -58 -67 -58 -8 0 83 89 92 90
3 0 -8 -15 -25 -32z m-244 -2 c0 -2 -11 -3 -25 -3 -24 0 -31 7 -19 20 6 6 44
-9 44 -17z m1490 10 c0 -2 -8 -10 -17 -17 -16 -13 -17 -12 -4 4 13 16 21 21
21 13z m1175 -42 c-10 -15 -15 -38 -13 -55 3 -16 1 -29 -4 -29 -4 0 2 -18 13
-40 18 -35 21 -53 17 -118 -6 -86 -59 -242 -83 -242 -11 0 -11 7 -3 33 42 133
49 165 44 213 -4 52 -25 104 -55 138 -51 58 -176 77 -276 41 -11 -4 -4 4 15
17 31 20 47 23 132 23 85 0 100 -3 128 -24 31 -22 32 -22 25 -2 -7 24 33 71
61 71 15 0 15 -2 -1 -26z m88 20 c3 -4 2 -15 -4 -25 -6 -13 -6 -19 0 -19 7 0
7 -9 -1 -25 -13 -28 -28 -33 -28 -9 0 9 5 12 12 8 7 -4 8 -3 4 4 -4 7 -16 12
-27 12 -22 0 -26 29 -7 48 13 13 41 16 51 6z m-4358 -54 c-11 -4 -34 -14 -52
-20 -38 -14 -96 -69 -120 -113 -29 -52 -22 -185 14 -295 3 -9 -4 -3 -14 13
-33 50 -57 136 -56 200 1 104 52 174 153 209 49 16 113 22 75 6z m1929 -7
c-19 -56 -46 -102 -63 -108 -11 -3 -28 -16 -38 -29 -10 -12 -25 -26 -33 -31
-8 -5 7 15 33 45 27 29 60 73 74 97 26 45 36 55 27 26z m1956 -27 c0 -2 -24
-21 -52 -42 -34 -24 -46 -29 -33 -14 24 28 85 68 85 56z m-1842 -71 c-3 -3 -9
2 -12 12 -6 14 -5 15 5 6 7 -7 10 -15 7 -18z m-663 -5 c3 -5 1 -10 -4 -10 -6
0 -11 5 -11 10 0 6 2 10 4 10 3 0 8 -4 11 -10z m766 -67 c13 -16 12 -17 -3 -4
-17 13 -22 21 -14 21 2 0 10 -8 17 -17z m-2135 -5 c4 -6 3 -8 -2 -5 -6 3 -28
-4 -49 -16 -42 -24 -67 -62 -87 -137 l-13 -45 -3 46 c-3 44 13 107 24 96 4 -3
17 7 31 23 14 17 39 34 56 39 18 5 33 10 34 10 1 1 5 -4 9 -11z m47 -5 c-7 -2
-19 -2 -25 0 -7 3 -2 5 12 5 14 0 19 -2 13 -5z m2032 -34 c4 -5 17 -14 30 -19
12 -5 33 -23 46 -41 20 -28 15 -26 -44 20 -70 55 -95 81 -59 62 12 -6 24 -16
27 -22z m1970 17 l30 -13 -45 -7 c-25 -4 -54 -10 -65 -12 -16 -4 -14 -1 5 10
24 15 24 15 3 16 -12 0 -33 -4 -48 -10 -17 -6 -24 -6 -20 0 7 11 60 28 90 29
11 0 34 -6 50 -13z m-4051 -26 c-43 -19 -65 -40 -42 -40 8 0 6 -5 -5 -11 -9
-6 -15 -14 -12 -19 3 -5 1 -11 -5 -15 -5 -3 -10 -28 -10 -55 0 -57 -24 -77
-34 -28 -19 93 20 164 99 181 44 10 48 5 9 -13z m4131 -10 c-3 -5 -2 -10 4
-10 16 0 28 -81 18 -120 -5 -19 -21 -53 -36 -75 -15 -22 -31 -49 -35 -60 -5
-11 -10 -15 -13 -8 -2 6 10 37 26 69 34 63 36 68 19 58 -8 -5 -9 -2 -5 10 4
11 3 15 -4 10 -6 -3 -9 -15 -6 -25 3 -11 1 -19 -4 -19 -5 0 -8 -3 -7 -7 2 -13
-19 -58 -34 -71 -12 -9 -11 1 4 44 12 34 17 68 13 85 -7 33 -48 69 -79 70 -11
0 -30 5 -41 10 -15 7 -6 8 32 6 53 -4 69 10 28 25 -11 4 -2 5 20 2 50 -7 73
-24 51 -36 -9 -5 -22 -6 -29 -2 -6 4 2 -8 18 -27 17 -19 32 -36 34 -39 2 -3 0
10 -4 29 -5 23 -4 31 4 27 13 -8 10 21 -3 43 -6 9 -5 12 2 7 6 -3 13 -2 17 4
3 5 8 10 11 10 3 0 2 -4 -1 -10z m-1829 -31 c3 -6 -5 -3 -20 6 -14 10 -26 19
-26 22 0 7 39 -17 46 -28z m-578 16 c-3 -3 -33 -22 -67 -43 -34 -20 -88 -64
-121 -96 -62 -62 -82 -68 -57 -19 23 43 54 67 152 116 89 46 103 52 93 42z
m195 -36 c-6 -6 -9 -18 -6 -27 4 -10 2 -13 -5 -8 -7 4 -12 2 -12 -4 0 -6 -4
-8 -10 -5 -5 3 -10 1 -10 -6 0 -6 8 -9 20 -6 11 3 18 1 14 -4 -3 -5 -16 -9
-29 -9 -22 0 -24 2 -15 26 6 14 20 34 33 44 23 19 39 18 20 -1z m797 -9 c0 -5
-10 -10 -22 -9 -22 0 -22 1 -3 9 11 5 21 9 23 9 1 1 2 -3 2 -9z m-3067 -57 c9
-9 17 -21 17 -26 0 -6 -10 -1 -23 11 -26 24 -48 27 -78 12 -24 -14 -26 5 -1
19 21 13 61 5 85 -16z m1747 17 c0 -5 -4 -10 -10 -10 -5 0 -10 5 -10 10 0 6 5
10 10 10 6 0 10 -4 10 -10z m3047 4 c-3 -3 -12 -4 -19 -1 -8 3 -5 6 6 6 11 1
17 -2 13 -5z m-1116 -77 c-10 -9 -11 -8 -5 6 3 10 9 15 12 12 3 -3 0 -11 -7
-18z m260 -42 c4 -28 10 -62 14 -75 l7 -25 -17 23 c-18 25 -61 49 -120 68 -24
8 -32 13 -20 14 11 1 38 12 60 25 57 33 69 29 76 -30z m-1128 -32 c19 -34 30
-60 23 -57 -7 3 -27 35 -45 72 -39 80 -26 72 22 -15z m564 -25 c6 -44 -5 -114
-16 -102 -21 23 -34 134 -18 150 4 4 4 19 2 33 -4 21 -2 19 11 -9 9 -19 19
-52 21 -72z m-698 37 c0 -5 -6 1 -14 15 -8 14 -14 30 -14 35 0 6 6 -1 14 -15
8 -14 14 -29 14 -35z m931 -15 c-19 -11 -39 -19 -45 -19 -5 0 6 8 25 19 19 11
40 19 45 19 6 0 -6 -8 -25 -19z m-2085 -79 c-6 -5 -25 10 -25 20 0 5 6 4 14
-3 8 -7 12 -15 11 -17z m-1392 12 c-7 -2 -21 -2 -30 0 -10 3 -4 5 12 5 17 0
24 -2 18 -5z m2547 -43 c-6 -10 -18 -18 -28 -18 -9 0 -26 -3 -37 -7 -17 -6
-17 -5 3 9 12 10 26 15 31 11 5 -3 12 4 16 15 4 11 11 18 16 15 5 -4 5 -14 -1
-25z"/>
<path d="M3487 4792 c-22 -24 -22 -48 -1 -56 14 -5 15 -4 4 9 -11 13 -9 20 10
40 13 14 19 25 13 25 -5 0 -17 -8 -26 -18z"/>
<path d="M2373 3721 c1 -11 3 -18 6 -15 3 2 15 -16 27 -41 l22 -46 4 30 c2 16
1 28 -3 25 -5 -2 -15 9 -24 25 -19 37 -34 48 -32 22z"/>
<path d="M2436 3144 c-20 -19 -20 -28 -2 -43 12 -10 13 -8 9 8 -3 12 0 28 7
36 16 20 6 19 -14 -1z"/>
<path d="M2525 3010 c3 -5 11 -10 16 -10 6 0 7 5 4 10 -3 6 -11 10 -16 10 -6
0 -7 -4 -4 -10z"/>
<path d="M2502 2874 c4 -21 22 -23 26 -1 2 10 -3 17 -13 17 -10 0 -15 -6 -13
-16z"/>
<path d="M545 2830 c-3 -6 1 -7 9 -4 18 7 21 14 7 14 -6 0 -13 -4 -16 -10z"/>
<path d="M448 2763 c-38 -41 -61 -81 -55 -95 4 -9 6 -7 6 4 1 9 19 39 41 67
44 56 48 66 8 24z"/>
<path d="M2106 2865 c-20 -21 -22 -42 -1 -25 8 7 22 9 31 6 11 -4 14 -1 12 11
-4 23 -23 27 -42 8z"/>
<path d="M2100 2811 c0 -6 4 -13 10 -16 6 -3 7 1 4 9 -7 18 -14 21 -14 7z"/>
<path d="M4742 2724 c10 -10 20 -15 24 -12 3 4 -5 12 -18 18 -22 12 -22 12 -6
-6z"/>
<path d="M2388 2753 c6 -2 18 -2 25 0 6 3 1 5 -13 5 -14 0 -19 -2 -12 -5z"/>
<path d="M2308 2743 c12 -2 30 -2 40 0 9 3 -1 5 -23 4 -22 0 -30 -2 -17 -4z"/>
<path d="M2258 2733 c7 -3 16 -2 19 1 4 3 -2 6 -13 5 -11 0 -14 -3 -6 -6z"/>
<path d="M2832 2545 c-2 -51 -18 -86 -66 -139 -37 -42 -22 -46 19 -6 42 40 58
88 53 150 l-5 45 -1 -50z"/>
<path d="M2439 2610 c-47 -25 -61 -57 -47 -107 5 -21 17 -47 26 -58 17 -20 17
-20 -6 -1 -12 11 -26 33 -31 50 -8 26 -9 27 -10 8 -1 -13 7 -37 16 -55 9 -18
16 -35 15 -38 -1 -4 8 -9 19 -12 16 -4 18 -3 9 7 -8 11 -3 11 28 3 53 -14 108
-2 128 28 9 14 20 23 24 20 5 -3 6 5 3 17 -4 19 -3 20 6 8 9 -13 11 -12 11 5
0 11 3 31 7 44 5 18 3 22 -7 16 -8 -5 -11 -3 -8 6 9 23 -11 48 -49 64 -47 20
-90 18 -134 -5z m135 -21 c14 -17 26 -38 26 -47 -1 -9 -7 -3 -15 15 -7 17 -26
38 -42 47 -18 10 -22 15 -11 16 9 0 28 -14 42 -31z m-22 -13 c29 -21 38 -58
23 -93 -24 -56 -85 -70 -129 -30 -35 31 -41 65 -16 105 17 28 25 32 62 32 24
0 51 -6 60 -14z"/>
<path d="M2466 2542 c-9 -14 5 -50 22 -57 24 -9 49 21 36 43 -12 19 -49 28
-58 14z m43 -28 c-14 -18 -24 -11 -15 11 3 9 11 13 16 10 8 -5 7 -11 -1 -21z"/>
<path d="M2589 2413 c-13 -16 -12 -17 4 -4 16 13 21 21 13 21 -2 0 -10 -8 -17
-17z"/>
<path d="M2463 2383 c9 -2 23 -2 30 0 6 3 -1 5 -18 5 -16 0 -22 -2 -12 -5z"/>
<path d="M4218 2283 c7 -3 16 -2 19 1 4 3 -2 6 -13 5 -11 0 -14 -3 -6 -6z"/>
<path d="M2753 2263 c-18 -7 -16 -23 2 -23 8 0 15 7 15 15 0 8 -1 15 -2 14 -2
0 -9 -3 -15 -6z"/>
<path d="M4759 1909 c-10 -6 -7 -9 14 -9 29 0 35 5 14 13 -8 3 -20 1 -28 -4z"/>
<path d="M2330 1147 c0 -2 7 -21 15 -40 33 -80 4 -186 -59 -212 -51 -22 -87
-18 -115 10 -24 26 -41 25 -41 -1 0 -28 47 -64 85 -64 19 0 35 4 35 9 0 5 20
18 44 29 75 36 103 115 76 213 -8 30 -40 75 -40 56z"/>
<path d="M2050 1096 c0 -2 8 -10 18 -17 15 -13 16 -12 3 4 -13 16 -21 21 -21
13z"/>
<path d="M2650 896 c0 -2 8 -10 18 -17 15 -13 16 -12 3 4 -13 16 -21 21 -21
13z"/>
<path d="M3348 553 c7 -3 16 -2 19 1 4 3 -2 6 -13 5 -11 0 -14 -3 -6 -6z"/>
<path d="M3010 777 c-16 -13 -26 -42 -11 -33 5 3 11 -1 14 -9 4 -8 -2 -16 -14
-20 -10 -4 -19 -11 -19 -16 0 -14 31 4 55 32 12 14 13 19 4 11 -14 -10 -18
-10 -23 4 -3 9 -1 23 5 30 14 17 9 18 -11 1z"/>
<path d="M4625 700 c-3 -5 -1 -10 4 -10 6 0 11 5 11 10 0 6 -2 10 -4 10 -3 0
-8 -4 -11 -10z"/>
<path d="M4610 325 c0 -8 4 -15 10 -15 5 0 7 7 4 15 -4 8 -8 15 -10 15 -2 0
-4 -7 -4 -15z"/>
<path d="M3519 4977 c-6 -13 -7 -32 -1 -46 7 -21 9 -18 19 23 11 48 0 62 -18
23z"/>
<path d="M2106 4588 c-48 -55 -56 -77 -13 -34 15 14 24 26 21 26 -9 0 31 37
46 42 9 3 10 7 3 11 -7 4 -31 -15 -57 -45z"/>
<path d="M70 4476 c0 -2 8 -10 18 -17 15 -13 16 -12 3 4 -13 16 -21 21 -21 13z"/>
<path d="M4709 4133 c-13 -16 -12 -17 4 -4 16 13 21 21 13 21 -2 0 -10 -8 -17
-17z"/>
<path d="M4640 4001 c0 -17 4 -32 8 -35 4 -2 6 11 4 30 -5 42 -12 45 -12 5z"/>
<path d="M4460 3889 c0 -5 9 -9 20 -9 11 0 20 2 20 4 0 2 -9 6 -20 9 -11 3
-20 1 -20 -4z"/>
<path d="M4505 3864 c-18 -14 -18 -14 4 -14 12 0 33 -11 47 -25 29 -29 42 -31
70 -11 18 14 18 15 -9 25 -16 6 -42 11 -58 11 -17 0 -28 4 -24 9 10 17 -9 20
-30 5z"/>
<path d="M4157 3809 c7 -7 15 -10 18 -7 3 3 -2 9 -12 12 -14 6 -15 5 -6 -5z"/>
</g>
</svg>
